<mxfile host="app.diagrams.net" modified="2023-06-22T02:48:28.968Z" agent="Mozilla/5.0 (Windows NT 10.0; Win64; x64) AppleWebKit/537.36 (KHTML, like Gecko) Chrome/114.0.0.0 Safari/537.36" etag="PmbPygPF9FBcVHLCim4g" version="21.3.6" type="device">
  <diagram name="Page-1" id="bOPAFG7Ld9AMdBCcb4Ac">
    <mxGraphModel dx="6450" dy="1773" grid="1" gridSize="10" guides="1" tooltips="1" connect="1" arrows="1" fold="1" page="1" pageScale="1" pageWidth="1000" pageHeight="1000" math="0" shadow="0">
      <root>
        <mxCell id="0" />
        <mxCell id="1" parent="0" />
        <mxCell id="cD2OyGJJ6BqeDQ9HETsG-8" style="edgeStyle=orthogonalEdgeStyle;rounded=0;orthogonalLoop=1;jettySize=auto;html=1;entryX=0.5;entryY=1;entryDx=0;entryDy=0;endArrow=block;endFill=0;endSize=15;strokeWidth=2;" edge="1" parent="1" source="l8gVVTxBz74XZ_GVE2R3-6" target="cD2OyGJJ6BqeDQ9HETsG-3">
          <mxGeometry relative="1" as="geometry">
            <Array as="points">
              <mxPoint x="-1130" y="430" />
            </Array>
          </mxGeometry>
        </mxCell>
        <mxCell id="cD2OyGJJ6BqeDQ9HETsG-87" style="edgeStyle=orthogonalEdgeStyle;rounded=0;orthogonalLoop=1;jettySize=auto;html=1;endArrow=open;endFill=0;strokeWidth=2;dashed=1;dashPattern=8 8;endSize=17;" edge="1" parent="1" source="l8gVVTxBz74XZ_GVE2R3-6" target="6R_6MBM99lbz82RT-N0f-38">
          <mxGeometry relative="1" as="geometry">
            <mxPoint x="-1680" y="1290" as="targetPoint" />
            <Array as="points">
              <mxPoint x="-1560" y="1120" />
              <mxPoint x="-1156" y="1120" />
            </Array>
          </mxGeometry>
        </mxCell>
        <mxCell id="cD2OyGJJ6BqeDQ9HETsG-88" style="edgeStyle=orthogonalEdgeStyle;rounded=0;orthogonalLoop=1;jettySize=auto;html=1;dashed=1;dashPattern=8 8;strokeWidth=2;endSize=15;endArrow=open;endFill=0;entryX=0.001;entryY=0.488;entryDx=0;entryDy=0;entryPerimeter=0;jumpSize=7;targetPerimeterSpacing=0;startSize=2;" edge="1" parent="1" source="l8gVVTxBz74XZ_GVE2R3-6" target="cD2OyGJJ6BqeDQ9HETsG-19">
          <mxGeometry relative="1" as="geometry">
            <mxPoint x="-570" y="1100" as="targetPoint" />
            <Array as="points">
              <mxPoint x="-1590" y="1132" />
            </Array>
          </mxGeometry>
        </mxCell>
        <mxCell id="l8gVVTxBz74XZ_GVE2R3-6" value="CreateTicket" style="swimlane;fontStyle=1;align=center;verticalAlign=top;childLayout=stackLayout;horizontal=1;startSize=26;horizontalStack=0;resizeParent=1;resizeParentMax=0;resizeLast=0;collapsible=1;marginBottom=0;whiteSpace=wrap;html=1;" parent="1" vertex="1">
          <mxGeometry x="-1620" y="410" width="380" height="216" as="geometry" />
        </mxCell>
        <mxCell id="l8gVVTxBz74XZ_GVE2R3-8" value="" style="line;strokeWidth=1;fillColor=none;align=left;verticalAlign=middle;spacingTop=-1;spacingLeft=3;spacingRight=3;rotatable=0;labelPosition=right;points=[];portConstraint=eastwest;strokeColor=inherit;" parent="l8gVVTxBz74XZ_GVE2R3-6" vertex="1">
          <mxGeometry y="26" width="380" height="8" as="geometry" />
        </mxCell>
        <mxCell id="cD2OyGJJ6BqeDQ9HETsG-17" value="+ &amp;lt;&amp;lt;create&amp;gt;&amp;gt; CreateTicket()&lt;br&gt;" style="text;strokeColor=none;fillColor=none;align=left;verticalAlign=top;spacingLeft=4;spacingRight=4;overflow=hidden;rotatable=0;points=[[0,0.5],[1,0.5]];portConstraint=eastwest;whiteSpace=wrap;html=1;" vertex="1" parent="l8gVVTxBz74XZ_GVE2R3-6">
          <mxGeometry y="34" width="380" height="26" as="geometry" />
        </mxCell>
        <mxCell id="l8gVVTxBz74XZ_GVE2R3-9" value="- Button_CreateTicket(object sender, RoutedEventArgs e): void" style="text;strokeColor=none;fillColor=none;align=left;verticalAlign=top;spacingLeft=4;spacingRight=4;overflow=hidden;rotatable=0;points=[[0,0.5],[1,0.5]];portConstraint=eastwest;whiteSpace=wrap;html=1;" parent="l8gVVTxBz74XZ_GVE2R3-6" vertex="1">
          <mxGeometry y="60" width="380" height="26" as="geometry" />
        </mxCell>
        <mxCell id="cD2OyGJJ6BqeDQ9HETsG-80" value="- ResetText() : void" style="text;strokeColor=none;fillColor=none;align=left;verticalAlign=top;spacingLeft=4;spacingRight=4;overflow=hidden;rotatable=0;points=[[0,0.5],[1,0.5]];portConstraint=eastwest;whiteSpace=wrap;html=1;" vertex="1" parent="l8gVVTxBz74XZ_GVE2R3-6">
          <mxGeometry y="86" width="380" height="26" as="geometry" />
        </mxCell>
        <mxCell id="cD2OyGJJ6BqeDQ9HETsG-84" value="- Description_LostFocus(object sender, RoutedEventArge e): void" style="text;strokeColor=none;fillColor=none;align=left;verticalAlign=top;spacingLeft=4;spacingRight=4;overflow=hidden;rotatable=0;points=[[0,0.5],[1,0.5]];portConstraint=eastwest;whiteSpace=wrap;html=1;" vertex="1" parent="l8gVVTxBz74XZ_GVE2R3-6">
          <mxGeometry y="112" width="380" height="26" as="geometry" />
        </mxCell>
        <mxCell id="cD2OyGJJ6BqeDQ9HETsG-86" value="- Description_GotFocus(object sender, RoutedEventArge e): void" style="text;strokeColor=none;fillColor=none;align=left;verticalAlign=top;spacingLeft=4;spacingRight=4;overflow=hidden;rotatable=0;points=[[0,0.5],[1,0.5]];portConstraint=eastwest;whiteSpace=wrap;html=1;" vertex="1" parent="l8gVVTxBz74XZ_GVE2R3-6">
          <mxGeometry y="138" width="380" height="26" as="geometry" />
        </mxCell>
        <mxCell id="cD2OyGJJ6BqeDQ9HETsG-85" value="- TitleInput_LostFocus(object sender, RoutedEventArge e): void" style="text;strokeColor=none;fillColor=none;align=left;verticalAlign=top;spacingLeft=4;spacingRight=4;overflow=hidden;rotatable=0;points=[[0,0.5],[1,0.5]];portConstraint=eastwest;whiteSpace=wrap;html=1;" vertex="1" parent="l8gVVTxBz74XZ_GVE2R3-6">
          <mxGeometry y="164" width="380" height="26" as="geometry" />
        </mxCell>
        <mxCell id="cD2OyGJJ6BqeDQ9HETsG-83" value="-TitleInput_LostFocus(object sender, RoutedEventArge e): void" style="text;strokeColor=none;fillColor=none;align=left;verticalAlign=top;spacingLeft=4;spacingRight=4;overflow=hidden;rotatable=0;points=[[0,0.5],[1,0.5]];portConstraint=eastwest;whiteSpace=wrap;html=1;" vertex="1" parent="l8gVVTxBz74XZ_GVE2R3-6">
          <mxGeometry y="190" width="380" height="26" as="geometry" />
        </mxCell>
        <mxCell id="cD2OyGJJ6BqeDQ9HETsG-95" style="edgeStyle=orthogonalEdgeStyle;shape=connector;rounded=0;orthogonalLoop=1;jettySize=auto;html=1;entryX=0;entryY=0.077;entryDx=0;entryDy=0;entryPerimeter=0;dashed=1;dashPattern=8 8;labelBackgroundColor=default;strokeColor=default;strokeWidth=2;fontFamily=Helvetica;fontSize=11;fontColor=default;endArrow=open;endFill=0;endSize=15;" edge="1" parent="1" source="RAh7o2k0Y51vPVvhqQPN-1" target="cD2OyGJJ6BqeDQ9HETsG-28">
          <mxGeometry relative="1" as="geometry" />
        </mxCell>
        <mxCell id="RAh7o2k0Y51vPVvhqQPN-1" value="Dashboard" style="swimlane;fontStyle=1;align=center;verticalAlign=top;childLayout=stackLayout;horizontal=1;startSize=26;horizontalStack=0;resizeParent=1;resizeParentMax=0;resizeLast=0;collapsible=1;marginBottom=0;whiteSpace=wrap;html=1;" parent="1" vertex="1">
          <mxGeometry x="-1352" y="824" width="250" height="86" as="geometry" />
        </mxCell>
        <mxCell id="RAh7o2k0Y51vPVvhqQPN-2" value="" style="line;strokeWidth=1;fillColor=none;align=left;verticalAlign=middle;spacingTop=-1;spacingLeft=3;spacingRight=3;rotatable=0;labelPosition=right;points=[];portConstraint=eastwest;strokeColor=inherit;" parent="RAh7o2k0Y51vPVvhqQPN-1" vertex="1">
          <mxGeometry y="26" width="250" height="8" as="geometry" />
        </mxCell>
        <mxCell id="cD2OyGJJ6BqeDQ9HETsG-11" style="edgeStyle=orthogonalEdgeStyle;rounded=0;orthogonalLoop=1;jettySize=auto;html=1;endArrow=block;endFill=0;endSize=15;strokeWidth=2;exitX=1;exitY=0;exitDx=0;exitDy=0;" edge="1" parent="RAh7o2k0Y51vPVvhqQPN-1" source="RAh7o2k0Y51vPVvhqQPN-1">
          <mxGeometry relative="1" as="geometry">
            <mxPoint x="262" y="-584" as="targetPoint" />
            <Array as="points">
              <mxPoint x="240" />
              <mxPoint x="240" y="-310" />
              <mxPoint x="262" y="-310" />
            </Array>
          </mxGeometry>
        </mxCell>
        <mxCell id="RAh7o2k0Y51vPVvhqQPN-3" value="+ &amp;lt;&amp;lt;create&amp;gt;&amp;gt; Dashboard()" style="text;strokeColor=none;fillColor=none;align=left;verticalAlign=top;spacingLeft=4;spacingRight=4;overflow=hidden;rotatable=0;points=[[0,0.5],[1,0.5]];portConstraint=eastwest;whiteSpace=wrap;html=1;" parent="RAh7o2k0Y51vPVvhqQPN-1" vertex="1">
          <mxGeometry y="34" width="250" height="26" as="geometry" />
        </mxCell>
        <mxCell id="cD2OyGJJ6BqeDQ9HETsG-94" value="- AddButton(string title, string navStr) : void" style="text;strokeColor=none;fillColor=none;align=left;verticalAlign=top;spacingLeft=4;spacingRight=4;overflow=hidden;rotatable=0;points=[[0,0.5],[1,0.5]];portConstraint=eastwest;whiteSpace=wrap;html=1;" vertex="1" parent="RAh7o2k0Y51vPVvhqQPN-1">
          <mxGeometry y="60" width="250" height="26" as="geometry" />
        </mxCell>
        <mxCell id="cD2OyGJJ6BqeDQ9HETsG-16" style="edgeStyle=orthogonalEdgeStyle;rounded=0;orthogonalLoop=1;jettySize=auto;html=1;endArrow=block;endFill=0;endSize=15;strokeWidth=2;" edge="1" parent="1" source="RAh7o2k0Y51vPVvhqQPN-4">
          <mxGeometry relative="1" as="geometry">
            <mxPoint x="-970" y="239.9999999999999" as="targetPoint" />
            <Array as="points">
              <mxPoint x="-470" y="320" />
              <mxPoint x="-970" y="320" />
            </Array>
          </mxGeometry>
        </mxCell>
        <mxCell id="RAh7o2k0Y51vPVvhqQPN-4" value="Login" style="swimlane;fontStyle=1;align=center;verticalAlign=top;childLayout=stackLayout;horizontal=1;startSize=26;horizontalStack=0;resizeParent=1;resizeParentMax=0;resizeLast=0;collapsible=1;marginBottom=0;whiteSpace=wrap;html=1;" parent="1" vertex="1">
          <mxGeometry x="-540" y="400" width="280" height="268" as="geometry" />
        </mxCell>
        <mxCell id="RAh7o2k0Y51vPVvhqQPN-5" value="" style="line;strokeWidth=1;fillColor=none;align=left;verticalAlign=middle;spacingTop=-1;spacingLeft=3;spacingRight=3;rotatable=0;labelPosition=right;points=[];portConstraint=eastwest;strokeColor=inherit;" parent="RAh7o2k0Y51vPVvhqQPN-4" vertex="1">
          <mxGeometry y="26" width="280" height="8" as="geometry" />
        </mxCell>
        <mxCell id="RAh7o2k0Y51vPVvhqQPN-6" value="+ &amp;lt;&amp;lt;create&amp;gt;&amp;gt; Login()" style="text;strokeColor=none;fillColor=none;align=left;verticalAlign=top;spacingLeft=4;spacingRight=4;overflow=hidden;rotatable=0;points=[[0,0.5],[1,0.5]];portConstraint=eastwest;whiteSpace=wrap;html=1;" parent="RAh7o2k0Y51vPVvhqQPN-4" vertex="1">
          <mxGeometry y="34" width="280" height="26" as="geometry" />
        </mxCell>
        <mxCell id="RAh7o2k0Y51vPVvhqQPN-7" value="+ ResetText(): void" style="text;strokeColor=none;fillColor=none;align=left;verticalAlign=top;spacingLeft=4;spacingRight=4;overflow=hidden;rotatable=0;points=[[0,0.5],[1,0.5]];portConstraint=eastwest;whiteSpace=wrap;html=1;" parent="RAh7o2k0Y51vPVvhqQPN-4" vertex="1">
          <mxGeometry y="60" width="280" height="26" as="geometry" />
        </mxCell>
        <mxCell id="RAh7o2k0Y51vPVvhqQPN-9" value="- ButtonClick_Login(): void" style="text;strokeColor=none;fillColor=none;align=left;verticalAlign=top;spacingLeft=4;spacingRight=4;overflow=hidden;rotatable=0;points=[[0,0.5],[1,0.5]];portConstraint=eastwest;whiteSpace=wrap;html=1;" parent="RAh7o2k0Y51vPVvhqQPN-4" vertex="1">
          <mxGeometry y="86" width="280" height="26" as="geometry" />
        </mxCell>
        <mxCell id="RAh7o2k0Y51vPVvhqQPN-8" value="- UTextBox_GotFocus(): void" style="text;strokeColor=none;fillColor=none;align=left;verticalAlign=top;spacingLeft=4;spacingRight=4;overflow=hidden;rotatable=0;points=[[0,0.5],[1,0.5]];portConstraint=eastwest;whiteSpace=wrap;html=1;" parent="RAh7o2k0Y51vPVvhqQPN-4" vertex="1">
          <mxGeometry y="112" width="280" height="26" as="geometry" />
        </mxCell>
        <mxCell id="RAh7o2k0Y51vPVvhqQPN-10" value="- UTextBox_LostFocus(): void" style="text;strokeColor=none;fillColor=none;align=left;verticalAlign=top;spacingLeft=4;spacingRight=4;overflow=hidden;rotatable=0;points=[[0,0.5],[1,0.5]];portConstraint=eastwest;whiteSpace=wrap;html=1;" parent="RAh7o2k0Y51vPVvhqQPN-4" vertex="1">
          <mxGeometry y="138" width="280" height="26" as="geometry" />
        </mxCell>
        <mxCell id="RAh7o2k0Y51vPVvhqQPN-12" value="- PTextBox_GotFocus(): void" style="text;strokeColor=none;fillColor=none;align=left;verticalAlign=top;spacingLeft=4;spacingRight=4;overflow=hidden;rotatable=0;points=[[0,0.5],[1,0.5]];portConstraint=eastwest;whiteSpace=wrap;html=1;" parent="RAh7o2k0Y51vPVvhqQPN-4" vertex="1">
          <mxGeometry y="164" width="280" height="26" as="geometry" />
        </mxCell>
        <mxCell id="RAh7o2k0Y51vPVvhqQPN-11" value="- PTextBox_LostFocus(): void" style="text;strokeColor=none;fillColor=none;align=left;verticalAlign=top;spacingLeft=4;spacingRight=4;overflow=hidden;rotatable=0;points=[[0,0.5],[1,0.5]];portConstraint=eastwest;whiteSpace=wrap;html=1;" parent="RAh7o2k0Y51vPVvhqQPN-4" vertex="1">
          <mxGeometry y="190" width="280" height="26" as="geometry" />
        </mxCell>
        <mxCell id="RAh7o2k0Y51vPVvhqQPN-13" value="- OnKeyDownHandler(): void" style="text;strokeColor=none;fillColor=none;align=left;verticalAlign=top;spacingLeft=4;spacingRight=4;overflow=hidden;rotatable=0;points=[[0,0.5],[1,0.5]];portConstraint=eastwest;whiteSpace=wrap;html=1;" parent="RAh7o2k0Y51vPVvhqQPN-4" vertex="1">
          <mxGeometry y="216" width="280" height="26" as="geometry" />
        </mxCell>
        <mxCell id="RAh7o2k0Y51vPVvhqQPN-14" value="-PasswordGhostText_PreviewMouseDown(): void" style="text;strokeColor=none;fillColor=none;align=left;verticalAlign=top;spacingLeft=4;spacingRight=4;overflow=hidden;rotatable=0;points=[[0,0.5],[1,0.5]];portConstraint=eastwest;whiteSpace=wrap;html=1;" parent="RAh7o2k0Y51vPVvhqQPN-4" vertex="1">
          <mxGeometry y="242" width="280" height="26" as="geometry" />
        </mxCell>
        <mxCell id="cD2OyGJJ6BqeDQ9HETsG-7" style="edgeStyle=orthogonalEdgeStyle;rounded=0;orthogonalLoop=1;jettySize=auto;html=1;endArrow=block;endFill=0;endSize=15;strokeWidth=2;" edge="1" parent="1" source="RAh7o2k0Y51vPVvhqQPN-15">
          <mxGeometry relative="1" as="geometry">
            <mxPoint x="-1310" y="240" as="targetPoint" />
            <Array as="points">
              <mxPoint x="-1690" y="320" />
              <mxPoint x="-1310" y="320" />
            </Array>
          </mxGeometry>
        </mxCell>
        <mxCell id="cD2OyGJJ6BqeDQ9HETsG-118" style="edgeStyle=orthogonalEdgeStyle;shape=connector;rounded=0;orthogonalLoop=1;jettySize=auto;html=1;dashed=1;dashPattern=8 8;labelBackgroundColor=default;strokeColor=default;strokeWidth=2;fontFamily=Helvetica;fontSize=11;fontColor=default;endArrow=open;endFill=0;endSize=15;entryX=-0.002;entryY=0.062;entryDx=0;entryDy=0;entryPerimeter=0;" edge="1" parent="1" source="RAh7o2k0Y51vPVvhqQPN-15" target="cD2OyGJJ6BqeDQ9HETsG-25">
          <mxGeometry relative="1" as="geometry">
            <Array as="points">
              <mxPoint x="-1770" y="750" />
              <mxPoint x="-1770" y="1138" />
            </Array>
          </mxGeometry>
        </mxCell>
        <mxCell id="cD2OyGJJ6BqeDQ9HETsG-119" style="edgeStyle=orthogonalEdgeStyle;shape=connector;rounded=0;orthogonalLoop=1;jettySize=auto;html=1;entryX=0.428;entryY=-0.005;entryDx=0;entryDy=0;dashed=1;dashPattern=8 8;labelBackgroundColor=default;strokeColor=default;strokeWidth=2;fontFamily=Helvetica;fontSize=11;fontColor=default;endArrow=open;endFill=0;endSize=15;entryPerimeter=0;" edge="1" parent="1" source="RAh7o2k0Y51vPVvhqQPN-15" target="6R_6MBM99lbz82RT-N0f-63">
          <mxGeometry relative="1" as="geometry">
            <Array as="points">
              <mxPoint x="-1850" y="1170" />
              <mxPoint x="-1608" y="1170" />
            </Array>
          </mxGeometry>
        </mxCell>
        <mxCell id="RAh7o2k0Y51vPVvhqQPN-15" value="MyAccount" style="swimlane;fontStyle=1;align=center;verticalAlign=top;childLayout=stackLayout;horizontal=1;startSize=26;horizontalStack=0;resizeParent=1;resizeParentMax=0;resizeLast=0;collapsible=1;marginBottom=0;whiteSpace=wrap;html=1;" parent="1" vertex="1">
          <mxGeometry x="-2220" y="540" width="560" height="554" as="geometry" />
        </mxCell>
        <mxCell id="RAh7o2k0Y51vPVvhqQPN-18" value="+ CONNECTIONSTRINGUSERS: string" style="text;strokeColor=none;fillColor=none;align=left;verticalAlign=top;spacingLeft=4;spacingRight=4;overflow=hidden;rotatable=0;points=[[0,0.5],[1,0.5]];portConstraint=eastwest;whiteSpace=wrap;html=1;" parent="RAh7o2k0Y51vPVvhqQPN-15" vertex="1">
          <mxGeometry y="26" width="560" height="26" as="geometry" />
        </mxCell>
        <mxCell id="RAh7o2k0Y51vPVvhqQPN-19" value="- oldPasswordFocused: bool" style="text;strokeColor=none;fillColor=none;align=left;verticalAlign=top;spacingLeft=4;spacingRight=4;overflow=hidden;rotatable=0;points=[[0,0.5],[1,0.5]];portConstraint=eastwest;whiteSpace=wrap;html=1;" parent="RAh7o2k0Y51vPVvhqQPN-15" vertex="1">
          <mxGeometry y="52" width="560" height="26" as="geometry" />
        </mxCell>
        <mxCell id="RAh7o2k0Y51vPVvhqQPN-20" value="- newPasswordFocused: bool" style="text;strokeColor=none;fillColor=none;align=left;verticalAlign=top;spacingLeft=4;spacingRight=4;overflow=hidden;rotatable=0;points=[[0,0.5],[1,0.5]];portConstraint=eastwest;whiteSpace=wrap;html=1;" parent="RAh7o2k0Y51vPVvhqQPN-15" vertex="1">
          <mxGeometry y="78" width="560" height="26" as="geometry" />
        </mxCell>
        <mxCell id="RAh7o2k0Y51vPVvhqQPN-21" value="- confirmPasswordFocused: bool" style="text;strokeColor=none;fillColor=none;align=left;verticalAlign=top;spacingLeft=4;spacingRight=4;overflow=hidden;rotatable=0;points=[[0,0.5],[1,0.5]];portConstraint=eastwest;whiteSpace=wrap;html=1;" parent="RAh7o2k0Y51vPVvhqQPN-15" vertex="1">
          <mxGeometry y="104" width="560" height="26" as="geometry" />
        </mxCell>
        <mxCell id="RAh7o2k0Y51vPVvhqQPN-22" value="- emailFocused: bool" style="text;strokeColor=none;fillColor=none;align=left;verticalAlign=top;spacingLeft=4;spacingRight=4;overflow=hidden;rotatable=0;points=[[0,0.5],[1,0.5]];portConstraint=eastwest;whiteSpace=wrap;html=1;" parent="RAh7o2k0Y51vPVvhqQPN-15" vertex="1">
          <mxGeometry y="130" width="560" height="26" as="geometry" />
        </mxCell>
        <mxCell id="RAh7o2k0Y51vPVvhqQPN-16" value="" style="line;strokeWidth=1;fillColor=none;align=left;verticalAlign=middle;spacingTop=-1;spacingLeft=3;spacingRight=3;rotatable=0;labelPosition=right;points=[];portConstraint=eastwest;strokeColor=inherit;" parent="RAh7o2k0Y51vPVvhqQPN-15" vertex="1">
          <mxGeometry y="156" width="560" height="8" as="geometry" />
        </mxCell>
        <mxCell id="RAh7o2k0Y51vPVvhqQPN-17" value="+ &amp;lt;&amp;lt;create&amp;gt;&amp;gt; MyAccount()" style="text;strokeColor=none;fillColor=none;align=left;verticalAlign=top;spacingLeft=4;spacingRight=4;overflow=hidden;rotatable=0;points=[[0,0.5],[1,0.5]];portConstraint=eastwest;whiteSpace=wrap;html=1;" parent="RAh7o2k0Y51vPVvhqQPN-15" vertex="1">
          <mxGeometry y="164" width="560" height="26" as="geometry" />
        </mxCell>
        <mxCell id="RAh7o2k0Y51vPVvhqQPN-23" value="- ButtonClick_Apply(object sender, RoutedEventArgs e): void" style="text;strokeColor=none;fillColor=none;align=left;verticalAlign=top;spacingLeft=4;spacingRight=4;overflow=hidden;rotatable=0;points=[[0,0.5],[1,0.5]];portConstraint=eastwest;whiteSpace=wrap;html=1;" parent="RAh7o2k0Y51vPVvhqQPN-15" vertex="1">
          <mxGeometry y="190" width="560" height="26" as="geometry" />
        </mxCell>
        <mxCell id="RAh7o2k0Y51vPVvhqQPN-24" value="+ ResetText(): void" style="text;strokeColor=none;fillColor=none;align=left;verticalAlign=top;spacingLeft=4;spacingRight=4;overflow=hidden;rotatable=0;points=[[0,0.5],[1,0.5]];portConstraint=eastwest;whiteSpace=wrap;html=1;" parent="RAh7o2k0Y51vPVvhqQPN-15" vertex="1">
          <mxGeometry y="216" width="560" height="26" as="geometry" />
        </mxCell>
        <mxCell id="RAh7o2k0Y51vPVvhqQPN-25" value="- OldPassTextBox_GotFocus(object sender, RoutedEventArgs e): void" style="text;strokeColor=none;fillColor=none;align=left;verticalAlign=top;spacingLeft=4;spacingRight=4;overflow=hidden;rotatable=0;points=[[0,0.5],[1,0.5]];portConstraint=eastwest;whiteSpace=wrap;html=1;" parent="RAh7o2k0Y51vPVvhqQPN-15" vertex="1">
          <mxGeometry y="242" width="560" height="26" as="geometry" />
        </mxCell>
        <mxCell id="RAh7o2k0Y51vPVvhqQPN-29" value="- OldPassTextBox_LostFocus(object sender, RoutedEventArgs e): void" style="text;strokeColor=none;fillColor=none;align=left;verticalAlign=top;spacingLeft=4;spacingRight=4;overflow=hidden;rotatable=0;points=[[0,0.5],[1,0.5]];portConstraint=eastwest;whiteSpace=wrap;html=1;" parent="RAh7o2k0Y51vPVvhqQPN-15" vertex="1">
          <mxGeometry y="268" width="560" height="26" as="geometry" />
        </mxCell>
        <mxCell id="RAh7o2k0Y51vPVvhqQPN-30" value="- NewPassTextBox_GotFocus(object sender, RoutedEventArgs e): void" style="text;strokeColor=none;fillColor=none;align=left;verticalAlign=top;spacingLeft=4;spacingRight=4;overflow=hidden;rotatable=0;points=[[0,0.5],[1,0.5]];portConstraint=eastwest;whiteSpace=wrap;html=1;" parent="RAh7o2k0Y51vPVvhqQPN-15" vertex="1">
          <mxGeometry y="294" width="560" height="26" as="geometry" />
        </mxCell>
        <mxCell id="RAh7o2k0Y51vPVvhqQPN-27" value="- NewPassTextBox_LostFocus(object sender, RoutedEventArgs e): void" style="text;strokeColor=none;fillColor=none;align=left;verticalAlign=top;spacingLeft=4;spacingRight=4;overflow=hidden;rotatable=0;points=[[0,0.5],[1,0.5]];portConstraint=eastwest;whiteSpace=wrap;html=1;" parent="RAh7o2k0Y51vPVvhqQPN-15" vertex="1">
          <mxGeometry y="320" width="560" height="26" as="geometry" />
        </mxCell>
        <mxCell id="RAh7o2k0Y51vPVvhqQPN-31" value="- ConfPassTextBox_GotFocus(object sender, RoutedEventArgs e): void" style="text;strokeColor=none;fillColor=none;align=left;verticalAlign=top;spacingLeft=4;spacingRight=4;overflow=hidden;rotatable=0;points=[[0,0.5],[1,0.5]];portConstraint=eastwest;whiteSpace=wrap;html=1;" parent="RAh7o2k0Y51vPVvhqQPN-15" vertex="1">
          <mxGeometry y="346" width="560" height="26" as="geometry" />
        </mxCell>
        <mxCell id="RAh7o2k0Y51vPVvhqQPN-32" value="- ConfPassTextBox_LostFocus(object sender, RoutedEventArgs e): void" style="text;strokeColor=none;fillColor=none;align=left;verticalAlign=top;spacingLeft=4;spacingRight=4;overflow=hidden;rotatable=0;points=[[0,0.5],[1,0.5]];portConstraint=eastwest;whiteSpace=wrap;html=1;" parent="RAh7o2k0Y51vPVvhqQPN-15" vertex="1">
          <mxGeometry y="372" width="560" height="26" as="geometry" />
        </mxCell>
        <mxCell id="RAh7o2k0Y51vPVvhqQPN-33" value="- EmailPassTextBox_GotFocus(object sender, RoutedEventArgs e): void" style="text;strokeColor=none;fillColor=none;align=left;verticalAlign=top;spacingLeft=4;spacingRight=4;overflow=hidden;rotatable=0;points=[[0,0.5],[1,0.5]];portConstraint=eastwest;whiteSpace=wrap;html=1;" parent="RAh7o2k0Y51vPVvhqQPN-15" vertex="1">
          <mxGeometry y="398" width="560" height="26" as="geometry" />
        </mxCell>
        <mxCell id="RAh7o2k0Y51vPVvhqQPN-34" value="- EmailPassTextBox_lostFocus(object sender, RoutedEventArgs e): void" style="text;strokeColor=none;fillColor=none;align=left;verticalAlign=top;spacingLeft=4;spacingRight=4;overflow=hidden;rotatable=0;points=[[0,0.5],[1,0.5]];portConstraint=eastwest;whiteSpace=wrap;html=1;" parent="RAh7o2k0Y51vPVvhqQPN-15" vertex="1">
          <mxGeometry y="424" width="560" height="26" as="geometry" />
        </mxCell>
        <mxCell id="RAh7o2k0Y51vPVvhqQPN-35" value="- OnKeyDownHandler(object sender, KeyEventArgs e): void" style="text;strokeColor=none;fillColor=none;align=left;verticalAlign=top;spacingLeft=4;spacingRight=4;overflow=hidden;rotatable=0;points=[[0,0.5],[1,0.5]];portConstraint=eastwest;whiteSpace=wrap;html=1;" parent="RAh7o2k0Y51vPVvhqQPN-15" vertex="1">
          <mxGeometry y="450" width="560" height="26" as="geometry" />
        </mxCell>
        <mxCell id="6R_6MBM99lbz82RT-N0f-1" value="-PasswordGhostText_PreviewMouseDown(object sender, MouseButtonEventArgs e): void" style="text;strokeColor=none;fillColor=none;align=left;verticalAlign=top;spacingLeft=4;spacingRight=4;overflow=hidden;rotatable=0;points=[[0,0.5],[1,0.5]];portConstraint=eastwest;whiteSpace=wrap;html=1;" parent="RAh7o2k0Y51vPVvhqQPN-15" vertex="1">
          <mxGeometry y="476" width="560" height="26" as="geometry" />
        </mxCell>
        <mxCell id="6R_6MBM99lbz82RT-N0f-2" value="-NewPasswordGhostText_PreviewMouseDown(object sender, MouseButtonEventArgs e): void" style="text;strokeColor=none;fillColor=none;align=left;verticalAlign=top;spacingLeft=4;spacingRight=4;overflow=hidden;rotatable=0;points=[[0,0.5],[1,0.5]];portConstraint=eastwest;whiteSpace=wrap;html=1;" parent="RAh7o2k0Y51vPVvhqQPN-15" vertex="1">
          <mxGeometry y="502" width="560" height="26" as="geometry" />
        </mxCell>
        <mxCell id="6R_6MBM99lbz82RT-N0f-3" value="-ConfPasswordGhostText_PreviewMouseDown(object sender, MouseButtonEventArgs e): void" style="text;strokeColor=none;fillColor=none;align=left;verticalAlign=top;spacingLeft=4;spacingRight=4;overflow=hidden;rotatable=0;points=[[0,0.5],[1,0.5]];portConstraint=eastwest;whiteSpace=wrap;html=1;" parent="RAh7o2k0Y51vPVvhqQPN-15" vertex="1">
          <mxGeometry y="528" width="560" height="26" as="geometry" />
        </mxCell>
        <mxCell id="cD2OyGJJ6BqeDQ9HETsG-14" style="edgeStyle=orthogonalEdgeStyle;rounded=0;orthogonalLoop=1;jettySize=auto;html=1;endArrow=block;endFill=0;endSize=15;strokeWidth=2;" edge="1" parent="1" source="RAh7o2k0Y51vPVvhqQPN-39">
          <mxGeometry relative="1" as="geometry">
            <mxPoint x="-990" y="240" as="targetPoint" />
          </mxGeometry>
        </mxCell>
        <mxCell id="RAh7o2k0Y51vPVvhqQPN-39" value="SpecificAccount" style="swimlane;fontStyle=1;align=center;verticalAlign=top;childLayout=stackLayout;horizontal=1;startSize=26;horizontalStack=0;resizeParent=1;resizeParentMax=0;resizeLast=0;collapsible=1;marginBottom=0;whiteSpace=wrap;html=1;" parent="1" vertex="1">
          <mxGeometry x="-790" y="338" width="230" height="372" as="geometry" />
        </mxCell>
        <mxCell id="RAh7o2k0Y51vPVvhqQPN-41" value="+ &lt;u&gt;Target: User&lt;/u&gt;" style="text;strokeColor=none;fillColor=none;align=left;verticalAlign=top;spacingLeft=4;spacingRight=4;overflow=hidden;rotatable=0;points=[[0,0.5],[1,0.5]];portConstraint=eastwest;whiteSpace=wrap;html=1;" parent="RAh7o2k0Y51vPVvhqQPN-39" vertex="1">
          <mxGeometry y="26" width="230" height="26" as="geometry" />
        </mxCell>
        <mxCell id="RAh7o2k0Y51vPVvhqQPN-44" value="- emailFocused: bool" style="text;strokeColor=none;fillColor=none;align=left;verticalAlign=top;spacingLeft=4;spacingRight=4;overflow=hidden;rotatable=0;points=[[0,0.5],[1,0.5]];portConstraint=eastwest;whiteSpace=wrap;html=1;" parent="RAh7o2k0Y51vPVvhqQPN-39" vertex="1">
          <mxGeometry y="52" width="230" height="26" as="geometry" />
        </mxCell>
        <mxCell id="RAh7o2k0Y51vPVvhqQPN-43" value="- emailFocused: bool" style="text;strokeColor=none;fillColor=none;align=left;verticalAlign=top;spacingLeft=4;spacingRight=4;overflow=hidden;rotatable=0;points=[[0,0.5],[1,0.5]];portConstraint=eastwest;whiteSpace=wrap;html=1;" parent="RAh7o2k0Y51vPVvhqQPN-39" vertex="1">
          <mxGeometry y="78" width="230" height="26" as="geometry" />
        </mxCell>
        <mxCell id="RAh7o2k0Y51vPVvhqQPN-40" value="" style="line;strokeWidth=1;fillColor=none;align=left;verticalAlign=middle;spacingTop=-1;spacingLeft=3;spacingRight=3;rotatable=0;labelPosition=right;points=[];portConstraint=eastwest;strokeColor=inherit;" parent="RAh7o2k0Y51vPVvhqQPN-39" vertex="1">
          <mxGeometry y="104" width="230" height="8" as="geometry" />
        </mxCell>
        <mxCell id="RAh7o2k0Y51vPVvhqQPN-42" value="+ &amp;lt;&amp;lt;create&amp;gt;&amp;gt; SpecificAccount()" style="text;strokeColor=none;fillColor=none;align=left;verticalAlign=top;spacingLeft=4;spacingRight=4;overflow=hidden;rotatable=0;points=[[0,0.5],[1,0.5]];portConstraint=eastwest;whiteSpace=wrap;html=1;" parent="RAh7o2k0Y51vPVvhqQPN-39" vertex="1">
          <mxGeometry y="112" width="230" height="26" as="geometry" />
        </mxCell>
        <mxCell id="RAh7o2k0Y51vPVvhqQPN-45" value="- ShowAccountDetails(): void" style="text;strokeColor=none;fillColor=none;align=left;verticalAlign=top;spacingLeft=4;spacingRight=4;overflow=hidden;rotatable=0;points=[[0,0.5],[1,0.5]];portConstraint=eastwest;whiteSpace=wrap;html=1;" parent="RAh7o2k0Y51vPVvhqQPN-39" vertex="1">
          <mxGeometry y="138" width="230" height="26" as="geometry" />
        </mxCell>
        <mxCell id="RAh7o2k0Y51vPVvhqQPN-46" value="- ButtonClick_ResetPassword(): void" style="text;strokeColor=none;fillColor=none;align=left;verticalAlign=top;spacingLeft=4;spacingRight=4;overflow=hidden;rotatable=0;points=[[0,0.5],[1,0.5]];portConstraint=eastwest;whiteSpace=wrap;html=1;" parent="RAh7o2k0Y51vPVvhqQPN-39" vertex="1">
          <mxGeometry y="164" width="230" height="26" as="geometry" />
        </mxCell>
        <mxCell id="RAh7o2k0Y51vPVvhqQPN-47" value="- ButtonClick_Disgard(): void" style="text;strokeColor=none;fillColor=none;align=left;verticalAlign=top;spacingLeft=4;spacingRight=4;overflow=hidden;rotatable=0;points=[[0,0.5],[1,0.5]];portConstraint=eastwest;whiteSpace=wrap;html=1;" parent="RAh7o2k0Y51vPVvhqQPN-39" vertex="1">
          <mxGeometry y="190" width="230" height="26" as="geometry" />
        </mxCell>
        <mxCell id="RAh7o2k0Y51vPVvhqQPN-48" value="- ButtonClick_Save(): void" style="text;strokeColor=none;fillColor=none;align=left;verticalAlign=top;spacingLeft=4;spacingRight=4;overflow=hidden;rotatable=0;points=[[0,0.5],[1,0.5]];portConstraint=eastwest;whiteSpace=wrap;html=1;" parent="RAh7o2k0Y51vPVvhqQPN-39" vertex="1">
          <mxGeometry y="216" width="230" height="26" as="geometry" />
        </mxCell>
        <mxCell id="RAh7o2k0Y51vPVvhqQPN-49" value="- EmailPassTextBox_GotFocus(): void" style="text;strokeColor=none;fillColor=none;align=left;verticalAlign=top;spacingLeft=4;spacingRight=4;overflow=hidden;rotatable=0;points=[[0,0.5],[1,0.5]];portConstraint=eastwest;whiteSpace=wrap;html=1;" parent="RAh7o2k0Y51vPVvhqQPN-39" vertex="1">
          <mxGeometry y="242" width="230" height="26" as="geometry" />
        </mxCell>
        <mxCell id="RAh7o2k0Y51vPVvhqQPN-50" value="- EmailPassTextBox_lostFocus(): void" style="text;strokeColor=none;fillColor=none;align=left;verticalAlign=top;spacingLeft=4;spacingRight=4;overflow=hidden;rotatable=0;points=[[0,0.5],[1,0.5]];portConstraint=eastwest;whiteSpace=wrap;html=1;" parent="RAh7o2k0Y51vPVvhqQPN-39" vertex="1">
          <mxGeometry y="268" width="230" height="26" as="geometry" />
        </mxCell>
        <mxCell id="RAh7o2k0Y51vPVvhqQPN-51" value="- AccountTypeTextBox_GotFocus(): void" style="text;strokeColor=none;fillColor=none;align=left;verticalAlign=top;spacingLeft=4;spacingRight=4;overflow=hidden;rotatable=0;points=[[0,0.5],[1,0.5]];portConstraint=eastwest;whiteSpace=wrap;html=1;" parent="RAh7o2k0Y51vPVvhqQPN-39" vertex="1">
          <mxGeometry y="294" width="230" height="26" as="geometry" />
        </mxCell>
        <mxCell id="RAh7o2k0Y51vPVvhqQPN-52" value="- AccountTypeTextBox_lostFocus(): void" style="text;strokeColor=none;fillColor=none;align=left;verticalAlign=top;spacingLeft=4;spacingRight=4;overflow=hidden;rotatable=0;points=[[0,0.5],[1,0.5]];portConstraint=eastwest;whiteSpace=wrap;html=1;" parent="RAh7o2k0Y51vPVvhqQPN-39" vertex="1">
          <mxGeometry y="320" width="230" height="26" as="geometry" />
        </mxCell>
        <mxCell id="6R_6MBM99lbz82RT-N0f-4" value="- DeleteAccount_Click(): void" style="text;strokeColor=none;fillColor=none;align=left;verticalAlign=top;spacingLeft=4;spacingRight=4;overflow=hidden;rotatable=0;points=[[0,0.5],[1,0.5]];portConstraint=eastwest;whiteSpace=wrap;html=1;" parent="RAh7o2k0Y51vPVvhqQPN-39" vertex="1">
          <mxGeometry y="346" width="230" height="26" as="geometry" />
        </mxCell>
        <mxCell id="cD2OyGJJ6BqeDQ9HETsG-49" style="edgeStyle=orthogonalEdgeStyle;rounded=0;orthogonalLoop=1;jettySize=auto;html=1;entryX=0.005;entryY=0.558;entryDx=0;entryDy=0;entryPerimeter=0;strokeWidth=2;endArrow=open;endFill=0;dashed=1;dashPattern=8 8;endSize=15;" edge="1" parent="1" source="RAh7o2k0Y51vPVvhqQPN-53" target="cD2OyGJJ6BqeDQ9HETsG-19">
          <mxGeometry relative="1" as="geometry">
            <Array as="points">
              <mxPoint x="-675" y="1133" />
            </Array>
          </mxGeometry>
        </mxCell>
        <mxCell id="cD2OyGJJ6BqeDQ9HETsG-125" style="edgeStyle=orthogonalEdgeStyle;shape=connector;rounded=0;orthogonalLoop=1;jettySize=auto;html=1;entryX=0.936;entryY=-0.002;entryDx=0;entryDy=0;entryPerimeter=0;labelBackgroundColor=default;strokeColor=default;strokeWidth=2;fontFamily=Helvetica;fontSize=11;fontColor=default;endArrow=none;endFill=0;endSize=15;" edge="1" parent="1" source="RAh7o2k0Y51vPVvhqQPN-53" target="6R_6MBM99lbz82RT-N0f-38">
          <mxGeometry relative="1" as="geometry" />
        </mxCell>
        <mxCell id="RAh7o2k0Y51vPVvhqQPN-53" value="SpecificTicket" style="swimlane;fontStyle=1;align=center;verticalAlign=top;childLayout=stackLayout;horizontal=1;startSize=26;horizontalStack=0;resizeParent=1;resizeParentMax=0;resizeLast=0;collapsible=1;marginBottom=0;whiteSpace=wrap;html=1;" parent="1" vertex="1">
          <mxGeometry x="-780" y="730" width="230" height="346" as="geometry" />
        </mxCell>
        <mxCell id="6R_6MBM99lbz82RT-N0f-17" value="+ &lt;u&gt;target: Ticket&lt;/u&gt;" style="text;strokeColor=none;fillColor=none;align=left;verticalAlign=top;spacingLeft=4;spacingRight=4;overflow=hidden;rotatable=0;points=[[0,0.5],[1,0.5]];portConstraint=eastwest;whiteSpace=wrap;html=1;" parent="RAh7o2k0Y51vPVvhqQPN-53" vertex="1">
          <mxGeometry y="26" width="230" height="26" as="geometry" />
        </mxCell>
        <mxCell id="RAh7o2k0Y51vPVvhqQPN-54" value="" style="line;strokeWidth=1;fillColor=none;align=left;verticalAlign=middle;spacingTop=-1;spacingLeft=3;spacingRight=3;rotatable=0;labelPosition=right;points=[];portConstraint=eastwest;strokeColor=inherit;" parent="RAh7o2k0Y51vPVvhqQPN-53" vertex="1">
          <mxGeometry y="52" width="230" height="8" as="geometry" />
        </mxCell>
        <mxCell id="RAh7o2k0Y51vPVvhqQPN-55" value="+ &amp;lt;&amp;lt;create&amp;gt;&amp;gt; SpecificTickets()" style="text;strokeColor=none;fillColor=none;align=left;verticalAlign=top;spacingLeft=4;spacingRight=4;overflow=hidden;rotatable=0;points=[[0,0.5],[1,0.5]];portConstraint=eastwest;whiteSpace=wrap;html=1;" parent="RAh7o2k0Y51vPVvhqQPN-53" vertex="1">
          <mxGeometry y="60" width="230" height="26" as="geometry" />
        </mxCell>
        <mxCell id="6R_6MBM99lbz82RT-N0f-5" value="- ViewTicketDetails(): void" style="text;strokeColor=none;fillColor=none;align=left;verticalAlign=top;spacingLeft=4;spacingRight=4;overflow=hidden;rotatable=0;points=[[0,0.5],[1,0.5]];portConstraint=eastwest;whiteSpace=wrap;html=1;" parent="RAh7o2k0Y51vPVvhqQPN-53" vertex="1">
          <mxGeometry y="86" width="230" height="26" as="geometry" />
        </mxCell>
        <mxCell id="6R_6MBM99lbz82RT-N0f-6" value="- ResetText(): void" style="text;strokeColor=none;fillColor=none;align=left;verticalAlign=top;spacingLeft=4;spacingRight=4;overflow=hidden;rotatable=0;points=[[0,0.5],[1,0.5]];portConstraint=eastwest;whiteSpace=wrap;html=1;" parent="RAh7o2k0Y51vPVvhqQPN-53" vertex="1">
          <mxGeometry y="112" width="230" height="26" as="geometry" />
        </mxCell>
        <mxCell id="6R_6MBM99lbz82RT-N0f-7" value="- CommentButton_Click(): void" style="text;strokeColor=none;fillColor=none;align=left;verticalAlign=top;spacingLeft=4;spacingRight=4;overflow=hidden;rotatable=0;points=[[0,0.5],[1,0.5]];portConstraint=eastwest;whiteSpace=wrap;html=1;" parent="RAh7o2k0Y51vPVvhqQPN-53" vertex="1">
          <mxGeometry y="138" width="230" height="26" as="geometry" />
        </mxCell>
        <mxCell id="6R_6MBM99lbz82RT-N0f-8" value="- CommentInputField_GotFocus(): void" style="text;strokeColor=none;fillColor=none;align=left;verticalAlign=top;spacingLeft=4;spacingRight=4;overflow=hidden;rotatable=0;points=[[0,0.5],[1,0.5]];portConstraint=eastwest;whiteSpace=wrap;html=1;" parent="RAh7o2k0Y51vPVvhqQPN-53" vertex="1">
          <mxGeometry y="164" width="230" height="26" as="geometry" />
        </mxCell>
        <mxCell id="6R_6MBM99lbz82RT-N0f-9" value="- CommentInputField_LostFocus(): void" style="text;strokeColor=none;fillColor=none;align=left;verticalAlign=top;spacingLeft=4;spacingRight=4;overflow=hidden;rotatable=0;points=[[0,0.5],[1,0.5]];portConstraint=eastwest;whiteSpace=wrap;html=1;" parent="RAh7o2k0Y51vPVvhqQPN-53" vertex="1">
          <mxGeometry y="190" width="230" height="26" as="geometry" />
        </mxCell>
        <mxCell id="6R_6MBM99lbz82RT-N0f-10" value="- OnKeyDownHandler(): void" style="text;strokeColor=none;fillColor=none;align=left;verticalAlign=top;spacingLeft=4;spacingRight=4;overflow=hidden;rotatable=0;points=[[0,0.5],[1,0.5]];portConstraint=eastwest;whiteSpace=wrap;html=1;" parent="RAh7o2k0Y51vPVvhqQPN-53" vertex="1">
          <mxGeometry y="216" width="230" height="26" as="geometry" />
        </mxCell>
        <mxCell id="6R_6MBM99lbz82RT-N0f-11" value="- Urgency_SelectionChanged(): void" style="text;strokeColor=none;fillColor=none;align=left;verticalAlign=top;spacingLeft=4;spacingRight=4;overflow=hidden;rotatable=0;points=[[0,0.5],[1,0.5]];portConstraint=eastwest;whiteSpace=wrap;html=1;" parent="RAh7o2k0Y51vPVvhqQPN-53" vertex="1">
          <mxGeometry y="242" width="230" height="26" as="geometry" />
        </mxCell>
        <mxCell id="6R_6MBM99lbz82RT-N0f-12" value="- StackPanel_SizeChanged(): void" style="text;strokeColor=none;fillColor=none;align=left;verticalAlign=top;spacingLeft=4;spacingRight=4;overflow=hidden;rotatable=0;points=[[0,0.5],[1,0.5]];portConstraint=eastwest;whiteSpace=wrap;html=1;" parent="RAh7o2k0Y51vPVvhqQPN-53" vertex="1">
          <mxGeometry y="268" width="230" height="26" as="geometry" />
        </mxCell>
        <mxCell id="6R_6MBM99lbz82RT-N0f-13" value="- ResolveButton_Click(): void" style="text;strokeColor=none;fillColor=none;align=left;verticalAlign=top;spacingLeft=4;spacingRight=4;overflow=hidden;rotatable=0;points=[[0,0.5],[1,0.5]];portConstraint=eastwest;whiteSpace=wrap;html=1;" parent="RAh7o2k0Y51vPVvhqQPN-53" vertex="1">
          <mxGeometry y="294" width="230" height="26" as="geometry" />
        </mxCell>
        <mxCell id="6R_6MBM99lbz82RT-N0f-14" value="- CanclePopup_Click(): void" style="text;strokeColor=none;fillColor=none;align=left;verticalAlign=top;spacingLeft=4;spacingRight=4;overflow=hidden;rotatable=0;points=[[0,0.5],[1,0.5]];portConstraint=eastwest;whiteSpace=wrap;html=1;" parent="RAh7o2k0Y51vPVvhqQPN-53" vertex="1">
          <mxGeometry y="320" width="230" height="26" as="geometry" />
        </mxCell>
        <mxCell id="cD2OyGJJ6BqeDQ9HETsG-12" style="edgeStyle=orthogonalEdgeStyle;rounded=0;orthogonalLoop=1;jettySize=auto;html=1;endArrow=block;endFill=0;endSize=15;strokeWidth=2;" edge="1" parent="1" source="RAh7o2k0Y51vPVvhqQPN-57">
          <mxGeometry relative="1" as="geometry">
            <mxPoint x="-1050" y="240" as="targetPoint" />
            <Array as="points">
              <mxPoint x="-1050" y="850" />
              <mxPoint x="-1050" y="503" />
              <mxPoint x="-1049" y="503" />
              <mxPoint x="-1049" y="240" />
            </Array>
          </mxGeometry>
        </mxCell>
        <mxCell id="cD2OyGJJ6BqeDQ9HETsG-131" style="edgeStyle=orthogonalEdgeStyle;shape=connector;rounded=0;orthogonalLoop=1;jettySize=auto;html=1;entryX=0.769;entryY=0.003;entryDx=0;entryDy=0;entryPerimeter=0;labelBackgroundColor=default;strokeColor=default;strokeWidth=2;fontFamily=Helvetica;fontSize=11;fontColor=default;endArrow=diamondThin;endFill=0;endSize=22;" edge="1" parent="1" source="RAh7o2k0Y51vPVvhqQPN-57" target="6R_6MBM99lbz82RT-N0f-63">
          <mxGeometry relative="1" as="geometry">
            <Array as="points">
              <mxPoint x="-930" y="1000" />
              <mxPoint x="-1392" y="1000" />
            </Array>
          </mxGeometry>
        </mxCell>
        <mxCell id="cD2OyGJJ6BqeDQ9HETsG-132" style="edgeStyle=orthogonalEdgeStyle;shape=connector;rounded=0;orthogonalLoop=1;jettySize=auto;html=1;entryX=0.012;entryY=0.051;entryDx=0;entryDy=0;entryPerimeter=0;dashed=1;dashPattern=8 8;labelBackgroundColor=default;strokeColor=default;strokeWidth=2;fontFamily=Helvetica;fontSize=11;fontColor=default;endArrow=open;endFill=0;endSize=15;" edge="1" parent="1" source="RAh7o2k0Y51vPVvhqQPN-57" target="cD2OyGJJ6BqeDQ9HETsG-28">
          <mxGeometry relative="1" as="geometry">
            <Array as="points">
              <mxPoint x="-845" y="1319" />
            </Array>
          </mxGeometry>
        </mxCell>
        <mxCell id="RAh7o2k0Y51vPVvhqQPN-57" value="ViewAccounts" style="swimlane;fontStyle=1;align=center;verticalAlign=top;childLayout=stackLayout;horizontal=1;startSize=26;horizontalStack=0;resizeParent=1;resizeParentMax=0;resizeLast=0;collapsible=1;marginBottom=0;whiteSpace=wrap;html=1;" parent="1" vertex="1">
          <mxGeometry x="-1040" y="800" width="220" height="190" as="geometry" />
        </mxCell>
        <mxCell id="cD2OyGJJ6BqeDQ9HETsG-130" value="&lt;u&gt;+ current : ViewAccounts&lt;/u&gt;" style="text;strokeColor=none;fillColor=none;align=left;verticalAlign=top;spacingLeft=4;spacingRight=4;overflow=hidden;rotatable=0;points=[[0,0.5],[1,0.5]];portConstraint=eastwest;whiteSpace=wrap;html=1;" vertex="1" parent="RAh7o2k0Y51vPVvhqQPN-57">
          <mxGeometry y="26" width="220" height="26" as="geometry" />
        </mxCell>
        <mxCell id="RAh7o2k0Y51vPVvhqQPN-58" value="" style="line;strokeWidth=1;fillColor=none;align=left;verticalAlign=middle;spacingTop=-1;spacingLeft=3;spacingRight=3;rotatable=0;labelPosition=right;points=[];portConstraint=eastwest;strokeColor=inherit;" parent="RAh7o2k0Y51vPVvhqQPN-57" vertex="1">
          <mxGeometry y="52" width="220" height="8" as="geometry" />
        </mxCell>
        <mxCell id="RAh7o2k0Y51vPVvhqQPN-59" value="+ &amp;lt;&amp;lt;create&amp;gt;&amp;gt; ViewAccounts()" style="text;strokeColor=none;fillColor=none;align=left;verticalAlign=top;spacingLeft=4;spacingRight=4;overflow=hidden;rotatable=0;points=[[0,0.5],[1,0.5]];portConstraint=eastwest;whiteSpace=wrap;html=1;" parent="RAh7o2k0Y51vPVvhqQPN-57" vertex="1">
          <mxGeometry y="60" width="220" height="26" as="geometry" />
        </mxCell>
        <mxCell id="cD2OyGJJ6BqeDQ9HETsG-128" value="+ Refresh() : void" style="text;strokeColor=none;fillColor=none;align=left;verticalAlign=top;spacingLeft=4;spacingRight=4;overflow=hidden;rotatable=0;points=[[0,0.5],[1,0.5]];portConstraint=eastwest;whiteSpace=wrap;html=1;" vertex="1" parent="RAh7o2k0Y51vPVvhqQPN-57">
          <mxGeometry y="86" width="220" height="33" as="geometry" />
        </mxCell>
        <mxCell id="cD2OyGJJ6BqeDQ9HETsG-127" value="- AddAccountToMenu(): void" style="text;strokeColor=none;fillColor=none;align=left;verticalAlign=top;spacingLeft=4;spacingRight=4;overflow=hidden;rotatable=0;points=[[0,0.5],[1,0.5]];portConstraint=eastwest;whiteSpace=wrap;html=1;" vertex="1" parent="RAh7o2k0Y51vPVvhqQPN-57">
          <mxGeometry y="119" width="220" height="26" as="geometry" />
        </mxCell>
        <mxCell id="RAh7o2k0Y51vPVvhqQPN-60" value="- CreateAccountButton_Click(object sender, RoutedEventArgs e) : void" style="text;strokeColor=none;fillColor=none;align=left;verticalAlign=top;spacingLeft=4;spacingRight=4;overflow=hidden;rotatable=0;points=[[0,0.5],[1,0.5]];portConstraint=eastwest;whiteSpace=wrap;html=1;" parent="RAh7o2k0Y51vPVvhqQPN-57" vertex="1">
          <mxGeometry y="145" width="220" height="45" as="geometry" />
        </mxCell>
        <mxCell id="RAh7o2k0Y51vPVvhqQPN-61" value="ViewTickets" style="swimlane;fontStyle=1;align=center;verticalAlign=top;childLayout=stackLayout;horizontal=1;startSize=26;horizontalStack=0;resizeParent=1;resizeParentMax=0;resizeLast=0;collapsible=1;marginBottom=0;whiteSpace=wrap;html=1;" parent="1" vertex="1">
          <mxGeometry x="-1010" y="540" width="190" height="190" as="geometry" />
        </mxCell>
        <mxCell id="6R_6MBM99lbz82RT-N0f-18" value="+ &lt;u&gt;current: ViewTickets&lt;/u&gt;" style="text;strokeColor=none;fillColor=none;align=left;verticalAlign=top;spacingLeft=4;spacingRight=4;overflow=hidden;rotatable=0;points=[[0,0.5],[1,0.5]];portConstraint=eastwest;whiteSpace=wrap;html=1;" parent="RAh7o2k0Y51vPVvhqQPN-61" vertex="1">
          <mxGeometry y="26" width="190" height="26" as="geometry" />
        </mxCell>
        <mxCell id="6R_6MBM99lbz82RT-N0f-19" value="&lt;u&gt;+ viewType: int&lt;/u&gt;" style="text;strokeColor=none;fillColor=none;align=left;verticalAlign=top;spacingLeft=4;spacingRight=4;overflow=hidden;rotatable=0;points=[[0,0.5],[1,0.5]];portConstraint=eastwest;whiteSpace=wrap;html=1;" parent="RAh7o2k0Y51vPVvhqQPN-61" vertex="1">
          <mxGeometry y="52" width="190" height="26" as="geometry" />
        </mxCell>
        <mxCell id="RAh7o2k0Y51vPVvhqQPN-62" value="" style="line;strokeWidth=1;fillColor=none;align=left;verticalAlign=middle;spacingTop=-1;spacingLeft=3;spacingRight=3;rotatable=0;labelPosition=right;points=[];portConstraint=eastwest;strokeColor=inherit;" parent="RAh7o2k0Y51vPVvhqQPN-61" vertex="1">
          <mxGeometry y="78" width="190" height="8" as="geometry" />
        </mxCell>
        <mxCell id="RAh7o2k0Y51vPVvhqQPN-63" value="+ &amp;lt;&amp;lt;create&amp;gt;&amp;gt; ViewTickets()" style="text;strokeColor=none;fillColor=none;align=left;verticalAlign=top;spacingLeft=4;spacingRight=4;overflow=hidden;rotatable=0;points=[[0,0.5],[1,0.5]];portConstraint=eastwest;whiteSpace=wrap;html=1;" parent="RAh7o2k0Y51vPVvhqQPN-61" vertex="1">
          <mxGeometry y="86" width="190" height="26" as="geometry" />
        </mxCell>
        <mxCell id="6R_6MBM99lbz82RT-N0f-20" value="+ Refresh(): void" style="text;strokeColor=none;fillColor=none;align=left;verticalAlign=top;spacingLeft=4;spacingRight=4;overflow=hidden;rotatable=0;points=[[0,0.5],[1,0.5]];portConstraint=eastwest;whiteSpace=wrap;html=1;" parent="RAh7o2k0Y51vPVvhqQPN-61" vertex="1">
          <mxGeometry y="112" width="190" height="26" as="geometry" />
        </mxCell>
        <mxCell id="6R_6MBM99lbz82RT-N0f-21" value="- showCorrectTickets(): void" style="text;strokeColor=none;fillColor=none;align=left;verticalAlign=top;spacingLeft=4;spacingRight=4;overflow=hidden;rotatable=0;points=[[0,0.5],[1,0.5]];portConstraint=eastwest;whiteSpace=wrap;html=1;" parent="RAh7o2k0Y51vPVvhqQPN-61" vertex="1">
          <mxGeometry y="138" width="190" height="26" as="geometry" />
        </mxCell>
        <mxCell id="6R_6MBM99lbz82RT-N0f-22" value="- AddTicketToList(): void" style="text;strokeColor=none;fillColor=none;align=left;verticalAlign=top;spacingLeft=4;spacingRight=4;overflow=hidden;rotatable=0;points=[[0,0.5],[1,0.5]];portConstraint=eastwest;whiteSpace=wrap;html=1;" parent="RAh7o2k0Y51vPVvhqQPN-61" vertex="1">
          <mxGeometry y="164" width="190" height="26" as="geometry" />
        </mxCell>
        <mxCell id="cD2OyGJJ6BqeDQ9HETsG-30" style="edgeStyle=orthogonalEdgeStyle;rounded=0;orthogonalLoop=1;jettySize=auto;html=1;entryX=0.498;entryY=1.019;entryDx=0;entryDy=0;entryPerimeter=0;endArrow=diamondThin;endFill=0;endSize=16;" edge="1" parent="1" source="6R_6MBM99lbz82RT-N0f-23" target="cD2OyGJJ6BqeDQ9HETsG-21">
          <mxGeometry relative="1" as="geometry">
            <mxPoint x="-370" y="1470" as="targetPoint" />
            <Array as="points">
              <mxPoint x="-314" y="1458" />
              <mxPoint x="-314" y="1458" />
            </Array>
          </mxGeometry>
        </mxCell>
        <mxCell id="cD2OyGJJ6BqeDQ9HETsG-32" value="1" style="edgeLabel;html=1;align=center;verticalAlign=middle;resizable=0;points=[];" vertex="1" connectable="0" parent="cD2OyGJJ6BqeDQ9HETsG-30">
          <mxGeometry x="-0.67" relative="1" as="geometry">
            <mxPoint as="offset" />
          </mxGeometry>
        </mxCell>
        <mxCell id="6R_6MBM99lbz82RT-N0f-23" value="Debug" style="swimlane;fontStyle=1;align=center;verticalAlign=top;childLayout=stackLayout;horizontal=1;startSize=26;horizontalStack=0;resizeParent=1;resizeParentMax=0;resizeLast=0;collapsible=1;marginBottom=0;whiteSpace=wrap;html=1;" parent="1" vertex="1">
          <mxGeometry x="-397.5" y="1470" width="170" height="164" as="geometry" />
        </mxCell>
        <mxCell id="6R_6MBM99lbz82RT-N0f-26" value="&lt;u&gt;- logger: Ilogger&lt;/u&gt;" style="text;strokeColor=none;fillColor=none;align=left;verticalAlign=top;spacingLeft=4;spacingRight=4;overflow=hidden;rotatable=0;points=[[0,0.5],[1,0.5]];portConstraint=eastwest;whiteSpace=wrap;html=1;" parent="6R_6MBM99lbz82RT-N0f-23" vertex="1">
          <mxGeometry y="26" width="170" height="26" as="geometry" />
        </mxCell>
        <mxCell id="6R_6MBM99lbz82RT-N0f-24" value="" style="line;strokeWidth=1;fillColor=none;align=left;verticalAlign=middle;spacingTop=-1;spacingLeft=3;spacingRight=3;rotatable=0;labelPosition=right;points=[];portConstraint=eastwest;strokeColor=inherit;" parent="6R_6MBM99lbz82RT-N0f-23" vertex="1">
          <mxGeometry y="52" width="170" height="8" as="geometry" />
        </mxCell>
        <mxCell id="6R_6MBM99lbz82RT-N0f-25" value="&lt;u&gt;+ SetLogger(): void&lt;/u&gt;" style="text;strokeColor=none;fillColor=none;align=left;verticalAlign=top;spacingLeft=4;spacingRight=4;overflow=hidden;rotatable=0;points=[[0,0.5],[1,0.5]];portConstraint=eastwest;whiteSpace=wrap;html=1;" parent="6R_6MBM99lbz82RT-N0f-23" vertex="1">
          <mxGeometry y="60" width="170" height="26" as="geometry" />
        </mxCell>
        <mxCell id="6R_6MBM99lbz82RT-N0f-27" value="&lt;u&gt;+ Log(): void&lt;/u&gt;" style="text;strokeColor=none;fillColor=none;align=left;verticalAlign=top;spacingLeft=4;spacingRight=4;overflow=hidden;rotatable=0;points=[[0,0.5],[1,0.5]];portConstraint=eastwest;whiteSpace=wrap;html=1;" parent="6R_6MBM99lbz82RT-N0f-23" vertex="1">
          <mxGeometry y="86" width="170" height="26" as="geometry" />
        </mxCell>
        <mxCell id="6R_6MBM99lbz82RT-N0f-28" value="&lt;u&gt;+ LogWarning(): void&lt;/u&gt;" style="text;strokeColor=none;fillColor=none;align=left;verticalAlign=top;spacingLeft=4;spacingRight=4;overflow=hidden;rotatable=0;points=[[0,0.5],[1,0.5]];portConstraint=eastwest;whiteSpace=wrap;html=1;" parent="6R_6MBM99lbz82RT-N0f-23" vertex="1">
          <mxGeometry y="112" width="170" height="26" as="geometry" />
        </mxCell>
        <mxCell id="6R_6MBM99lbz82RT-N0f-29" value="&lt;u&gt;+ LogError(): void&lt;/u&gt;" style="text;strokeColor=none;fillColor=none;align=left;verticalAlign=top;spacingLeft=4;spacingRight=4;overflow=hidden;rotatable=0;points=[[0,0.5],[1,0.5]];portConstraint=eastwest;whiteSpace=wrap;html=1;" parent="6R_6MBM99lbz82RT-N0f-23" vertex="1">
          <mxGeometry y="138" width="170" height="26" as="geometry" />
        </mxCell>
        <mxCell id="cD2OyGJJ6BqeDQ9HETsG-51" style="edgeStyle=orthogonalEdgeStyle;rounded=0;orthogonalLoop=1;jettySize=auto;html=1;entryX=0.742;entryY=0.998;entryDx=0;entryDy=0;entryPerimeter=0;endArrow=diamondThin;endFill=1;strokeWidth=2;endSize=20;" edge="1" parent="1" source="6R_6MBM99lbz82RT-N0f-30" target="6R_6MBM99lbz82RT-N0f-86">
          <mxGeometry relative="1" as="geometry" />
        </mxCell>
        <mxCell id="cD2OyGJJ6BqeDQ9HETsG-52" style="edgeStyle=orthogonalEdgeStyle;rounded=0;orthogonalLoop=1;jettySize=auto;html=1;entryX=0.25;entryY=1;entryDx=0;entryDy=0;endArrow=diamondThin;endFill=1;strokeWidth=2;endSize=20;" edge="1" parent="1" source="6R_6MBM99lbz82RT-N0f-30" target="6R_6MBM99lbz82RT-N0f-62">
          <mxGeometry relative="1" as="geometry" />
        </mxCell>
        <mxCell id="6R_6MBM99lbz82RT-N0f-30" value="Server" style="swimlane;fontStyle=1;align=center;verticalAlign=top;childLayout=stackLayout;horizontal=1;startSize=26;horizontalStack=0;resizeParent=1;resizeParentMax=0;resizeLast=0;collapsible=1;marginBottom=0;whiteSpace=wrap;html=1;" parent="1" vertex="1">
          <mxGeometry x="-1480" y="2040" width="530" height="190" as="geometry" />
        </mxCell>
        <mxCell id="6R_6MBM99lbz82RT-N0f-33" value="~ SOURCE_TICKET: string" style="text;strokeColor=none;fillColor=none;align=left;verticalAlign=top;spacingLeft=4;spacingRight=4;overflow=hidden;rotatable=0;points=[[0,0.5],[1,0.5]];portConstraint=eastwest;whiteSpace=wrap;html=1;" parent="6R_6MBM99lbz82RT-N0f-30" vertex="1">
          <mxGeometry y="26" width="530" height="26" as="geometry" />
        </mxCell>
        <mxCell id="6R_6MBM99lbz82RT-N0f-34" value="~ SOURCE_USERS: string" style="text;strokeColor=none;fillColor=none;align=left;verticalAlign=top;spacingLeft=4;spacingRight=4;overflow=hidden;rotatable=0;points=[[0,0.5],[1,0.5]];portConstraint=eastwest;whiteSpace=wrap;html=1;" parent="6R_6MBM99lbz82RT-N0f-30" vertex="1">
          <mxGeometry y="52" width="530" height="26" as="geometry" />
        </mxCell>
        <mxCell id="6R_6MBM99lbz82RT-N0f-31" value="" style="line;strokeWidth=1;fillColor=none;align=left;verticalAlign=middle;spacingTop=-1;spacingLeft=3;spacingRight=3;rotatable=0;labelPosition=right;points=[];portConstraint=eastwest;strokeColor=inherit;" parent="6R_6MBM99lbz82RT-N0f-30" vertex="1">
          <mxGeometry y="78" width="530" height="8" as="geometry" />
        </mxCell>
        <mxCell id="6R_6MBM99lbz82RT-N0f-32" value="&lt;u&gt;+ HashString(string nonHashString): string&lt;/u&gt;" style="text;strokeColor=none;fillColor=none;align=left;verticalAlign=top;spacingLeft=4;spacingRight=4;overflow=hidden;rotatable=0;points=[[0,0.5],[1,0.5]];portConstraint=eastwest;whiteSpace=wrap;html=1;" parent="6R_6MBM99lbz82RT-N0f-30" vertex="1">
          <mxGeometry y="86" width="530" height="26" as="geometry" />
        </mxCell>
        <mxCell id="6R_6MBM99lbz82RT-N0f-35" value="+ GetConnection(string connectionString): SqlConnection" style="text;strokeColor=none;fillColor=none;align=left;verticalAlign=top;spacingLeft=4;spacingRight=4;overflow=hidden;rotatable=0;points=[[0,0.5],[1,0.5]];portConstraint=eastwest;whiteSpace=wrap;html=1;fontStyle=4" parent="6R_6MBM99lbz82RT-N0f-30" vertex="1">
          <mxGeometry y="112" width="530" height="26" as="geometry" />
        </mxCell>
        <mxCell id="6R_6MBM99lbz82RT-N0f-36" value="+ CloseConnection(SqlDataReader sdr, SqlCommand sc, SqlConnection connection): void" style="text;strokeColor=none;fillColor=none;align=left;verticalAlign=top;spacingLeft=4;spacingRight=4;overflow=hidden;rotatable=0;points=[[0,0.5],[1,0.5]];portConstraint=eastwest;whiteSpace=wrap;html=1;fontStyle=4" parent="6R_6MBM99lbz82RT-N0f-30" vertex="1">
          <mxGeometry y="138" width="530" height="26" as="geometry" />
        </mxCell>
        <mxCell id="6R_6MBM99lbz82RT-N0f-37" value="+CloseConnection(SqlConnection connection): void" style="text;strokeColor=none;fillColor=none;align=left;verticalAlign=top;spacingLeft=4;spacingRight=4;overflow=hidden;rotatable=0;points=[[0,0.5],[1,0.5]];portConstraint=eastwest;whiteSpace=wrap;html=1;fontStyle=4" parent="6R_6MBM99lbz82RT-N0f-30" vertex="1">
          <mxGeometry y="164" width="530" height="26" as="geometry" />
        </mxCell>
        <mxCell id="cD2OyGJJ6BqeDQ9HETsG-48" style="edgeStyle=orthogonalEdgeStyle;rounded=0;orthogonalLoop=1;jettySize=auto;html=1;entryX=-0.001;entryY=0.123;entryDx=0;entryDy=0;entryPerimeter=0;dashed=1;dashPattern=8 8;strokeWidth=2;endArrow=open;endFill=0;endSize=15;" edge="1" parent="1" source="6R_6MBM99lbz82RT-N0f-38" target="cD2OyGJJ6BqeDQ9HETsG-28">
          <mxGeometry relative="1" as="geometry">
            <Array as="points">
              <mxPoint x="-890" y="1320" />
              <mxPoint x="-540" y="1320" />
              <mxPoint x="-540" y="1321" />
            </Array>
          </mxGeometry>
        </mxCell>
        <mxCell id="6R_6MBM99lbz82RT-N0f-38" value="Ticket" style="swimlane;fontStyle=1;align=center;verticalAlign=top;childLayout=stackLayout;horizontal=1;startSize=26;horizontalStack=0;resizeParent=1;resizeParentMax=0;resizeLast=0;collapsible=1;marginBottom=0;whiteSpace=wrap;html=1;" parent="1" vertex="1">
          <mxGeometry x="-1190" y="1360" width="560" height="580" as="geometry" />
        </mxCell>
        <mxCell id="6R_6MBM99lbz82RT-N0f-39" value="- id: int" style="text;strokeColor=none;fillColor=none;align=left;verticalAlign=top;spacingLeft=4;spacingRight=4;overflow=hidden;rotatable=0;points=[[0,0.5],[1,0.5]];portConstraint=eastwest;whiteSpace=wrap;html=1;" parent="6R_6MBM99lbz82RT-N0f-38" vertex="1">
          <mxGeometry y="26" width="560" height="26" as="geometry" />
        </mxCell>
        <mxCell id="6R_6MBM99lbz82RT-N0f-42" value="- status: bool" style="text;strokeColor=none;fillColor=none;align=left;verticalAlign=top;spacingLeft=4;spacingRight=4;overflow=hidden;rotatable=0;points=[[0,0.5],[1,0.5]];portConstraint=eastwest;whiteSpace=wrap;html=1;" parent="6R_6MBM99lbz82RT-N0f-38" vertex="1">
          <mxGeometry y="52" width="560" height="26" as="geometry" />
        </mxCell>
        <mxCell id="6R_6MBM99lbz82RT-N0f-43" value="- callerID: string" style="text;strokeColor=none;fillColor=none;align=left;verticalAlign=top;spacingLeft=4;spacingRight=4;overflow=hidden;rotatable=0;points=[[0,0.5],[1,0.5]];portConstraint=eastwest;whiteSpace=wrap;html=1;" parent="6R_6MBM99lbz82RT-N0f-38" vertex="1">
          <mxGeometry y="78" width="560" height="26" as="geometry" />
        </mxCell>
        <mxCell id="6R_6MBM99lbz82RT-N0f-44" value="- creatorID: string" style="text;strokeColor=none;fillColor=none;align=left;verticalAlign=top;spacingLeft=4;spacingRight=4;overflow=hidden;rotatable=0;points=[[0,0.5],[1,0.5]];portConstraint=eastwest;whiteSpace=wrap;html=1;" parent="6R_6MBM99lbz82RT-N0f-38" vertex="1">
          <mxGeometry y="104" width="560" height="26" as="geometry" />
        </mxCell>
        <mxCell id="6R_6MBM99lbz82RT-N0f-45" value="- title: string" style="text;strokeColor=none;fillColor=none;align=left;verticalAlign=top;spacingLeft=4;spacingRight=4;overflow=hidden;rotatable=0;points=[[0,0.5],[1,0.5]];portConstraint=eastwest;whiteSpace=wrap;html=1;" parent="6R_6MBM99lbz82RT-N0f-38" vertex="1">
          <mxGeometry y="130" width="560" height="26" as="geometry" />
        </mxCell>
        <mxCell id="6R_6MBM99lbz82RT-N0f-46" value="- urgency: int" style="text;strokeColor=none;fillColor=none;align=left;verticalAlign=top;spacingLeft=4;spacingRight=4;overflow=hidden;rotatable=0;points=[[0,0.5],[1,0.5]];portConstraint=eastwest;whiteSpace=wrap;html=1;" parent="6R_6MBM99lbz82RT-N0f-38" vertex="1">
          <mxGeometry y="156" width="560" height="26" as="geometry" />
        </mxCell>
        <mxCell id="6R_6MBM99lbz82RT-N0f-47" value="- resolveReason: RESOLVEREASON" style="text;strokeColor=none;fillColor=none;align=left;verticalAlign=top;spacingLeft=4;spacingRight=4;overflow=hidden;rotatable=0;points=[[0,0.5],[1,0.5]];portConstraint=eastwest;whiteSpace=wrap;html=1;" parent="6R_6MBM99lbz82RT-N0f-38" vertex="1">
          <mxGeometry y="182" width="560" height="26" as="geometry" />
        </mxCell>
        <mxCell id="6R_6MBM99lbz82RT-N0f-48" value="- created: DateTime" style="text;strokeColor=none;fillColor=none;align=left;verticalAlign=top;spacingLeft=4;spacingRight=4;overflow=hidden;rotatable=0;points=[[0,0.5],[1,0.5]];portConstraint=eastwest;whiteSpace=wrap;html=1;" parent="6R_6MBM99lbz82RT-N0f-38" vertex="1">
          <mxGeometry y="208" width="560" height="26" as="geometry" />
        </mxCell>
        <mxCell id="6R_6MBM99lbz82RT-N0f-49" value="- updated: DateTime" style="text;strokeColor=none;fillColor=none;align=left;verticalAlign=top;spacingLeft=4;spacingRight=4;overflow=hidden;rotatable=0;points=[[0,0.5],[1,0.5]];portConstraint=eastwest;whiteSpace=wrap;html=1;" parent="6R_6MBM99lbz82RT-N0f-38" vertex="1">
          <mxGeometry y="234" width="560" height="26" as="geometry" />
        </mxCell>
        <mxCell id="6R_6MBM99lbz82RT-N0f-40" value="" style="line;strokeWidth=1;fillColor=none;align=left;verticalAlign=middle;spacingTop=-1;spacingLeft=3;spacingRight=3;rotatable=0;labelPosition=right;points=[];portConstraint=eastwest;strokeColor=inherit;" parent="6R_6MBM99lbz82RT-N0f-38" vertex="1">
          <mxGeometry y="260" width="560" height="8" as="geometry" />
        </mxCell>
        <mxCell id="6R_6MBM99lbz82RT-N0f-41" value="+ &amp;lt;&amp;lt;create&amp;gt;&amp;gt; Ticket(int _id, out bool wooked)" style="text;strokeColor=none;fillColor=none;align=left;verticalAlign=top;spacingLeft=4;spacingRight=4;overflow=hidden;rotatable=0;points=[[0,0.5],[1,0.5]];portConstraint=eastwest;whiteSpace=wrap;html=1;" parent="6R_6MBM99lbz82RT-N0f-38" vertex="1">
          <mxGeometry y="268" width="560" height="26" as="geometry" />
        </mxCell>
        <mxCell id="6R_6MBM99lbz82RT-N0f-50" value="- Ticket()" style="text;strokeColor=none;fillColor=none;align=left;verticalAlign=top;spacingLeft=4;spacingRight=4;overflow=hidden;rotatable=0;points=[[0,0.5],[1,0.5]];portConstraint=eastwest;whiteSpace=wrap;html=1;" parent="6R_6MBM99lbz82RT-N0f-38" vertex="1">
          <mxGeometry y="294" width="560" height="26" as="geometry" />
        </mxCell>
        <mxCell id="6R_6MBM99lbz82RT-N0f-51" value="&lt;u&gt;+ CreateNew(string callerID, string creatorID, string title, int urgency, DateTime created): Ticket&lt;/u&gt;" style="text;strokeColor=none;fillColor=none;align=left;verticalAlign=top;spacingLeft=4;spacingRight=4;overflow=hidden;rotatable=0;points=[[0,0.5],[1,0.5]];portConstraint=eastwest;whiteSpace=wrap;html=1;" parent="6R_6MBM99lbz82RT-N0f-38" vertex="1">
          <mxGeometry y="320" width="560" height="26" as="geometry" />
        </mxCell>
        <mxCell id="6R_6MBM99lbz82RT-N0f-53" value="&lt;u&gt;- NewId(): int&lt;/u&gt;" style="text;strokeColor=none;fillColor=none;align=left;verticalAlign=top;spacingLeft=4;spacingRight=4;overflow=hidden;rotatable=0;points=[[0,0.5],[1,0.5]];portConstraint=eastwest;whiteSpace=wrap;html=1;" parent="6R_6MBM99lbz82RT-N0f-38" vertex="1">
          <mxGeometry y="346" width="560" height="26" as="geometry" />
        </mxCell>
        <mxCell id="6R_6MBM99lbz82RT-N0f-54" value="&lt;u&gt;- AddNewTicket(Ticket t): void&amp;nbsp;&lt;/u&gt;" style="text;strokeColor=none;fillColor=none;align=left;verticalAlign=top;spacingLeft=4;spacingRight=4;overflow=hidden;rotatable=0;points=[[0,0.5],[1,0.5]];portConstraint=eastwest;whiteSpace=wrap;html=1;" parent="6R_6MBM99lbz82RT-N0f-38" vertex="1">
          <mxGeometry y="372" width="560" height="26" as="geometry" />
        </mxCell>
        <mxCell id="6R_6MBM99lbz82RT-N0f-55" value="- GetTicketInfo(int _id): bool" style="text;strokeColor=none;fillColor=none;align=left;verticalAlign=top;spacingLeft=4;spacingRight=4;overflow=hidden;rotatable=0;points=[[0,0.5],[1,0.5]];portConstraint=eastwest;whiteSpace=wrap;html=1;" parent="6R_6MBM99lbz82RT-N0f-38" vertex="1">
          <mxGeometry y="398" width="560" height="26" as="geometry" />
        </mxCell>
        <mxCell id="6R_6MBM99lbz82RT-N0f-56" value="+ AddComment(string comment): void" style="text;strokeColor=none;fillColor=none;align=left;verticalAlign=top;spacingLeft=4;spacingRight=4;overflow=hidden;rotatable=0;points=[[0,0.5],[1,0.5]];portConstraint=eastwest;whiteSpace=wrap;html=1;" parent="6R_6MBM99lbz82RT-N0f-38" vertex="1">
          <mxGeometry y="424" width="560" height="26" as="geometry" />
        </mxCell>
        <mxCell id="6R_6MBM99lbz82RT-N0f-57" value="+ ChangeUrgency(int newUrgency): void" style="text;strokeColor=none;fillColor=none;align=left;verticalAlign=top;spacingLeft=4;spacingRight=4;overflow=hidden;rotatable=0;points=[[0,0.5],[1,0.5]];portConstraint=eastwest;whiteSpace=wrap;html=1;" parent="6R_6MBM99lbz82RT-N0f-38" vertex="1">
          <mxGeometry y="450" width="560" height="26" as="geometry" />
        </mxCell>
        <mxCell id="6R_6MBM99lbz82RT-N0f-58" value="&lt;u&gt;+ GetAllTicketIds(): list &amp;lt;int&amp;gt;&lt;/u&gt;" style="text;strokeColor=none;fillColor=none;align=left;verticalAlign=top;spacingLeft=4;spacingRight=4;overflow=hidden;rotatable=0;points=[[0,0.5],[1,0.5]];portConstraint=eastwest;whiteSpace=wrap;html=1;" parent="6R_6MBM99lbz82RT-N0f-38" vertex="1">
          <mxGeometry y="476" width="560" height="26" as="geometry" />
        </mxCell>
        <mxCell id="6R_6MBM99lbz82RT-N0f-59" value="&lt;u&gt;+&amp;nbsp;&lt;/u&gt;&lt;u style=&quot;border-color: var(--border-color);&quot;&gt;GetAllTicketIds&lt;/u&gt;&lt;u&gt;(int opa): list &amp;lt;int&amp;gt;&lt;/u&gt;" style="text;strokeColor=none;fillColor=none;align=left;verticalAlign=top;spacingLeft=4;spacingRight=4;overflow=hidden;rotatable=0;points=[[0,0.5],[1,0.5]];portConstraint=eastwest;whiteSpace=wrap;html=1;" parent="6R_6MBM99lbz82RT-N0f-38" vertex="1">
          <mxGeometry y="502" width="560" height="26" as="geometry" />
        </mxCell>
        <mxCell id="6R_6MBM99lbz82RT-N0f-61" value="+ Resove(int reason): void" style="text;strokeColor=none;fillColor=none;align=left;verticalAlign=top;spacingLeft=4;spacingRight=4;overflow=hidden;rotatable=0;points=[[0,0.5],[1,0.5]];portConstraint=eastwest;whiteSpace=wrap;html=1;" parent="6R_6MBM99lbz82RT-N0f-38" vertex="1">
          <mxGeometry y="528" width="560" height="26" as="geometry" />
        </mxCell>
        <mxCell id="6R_6MBM99lbz82RT-N0f-62" value=" + ChangeStatus(bool newStatus): void" style="text;whiteSpace=wrap;" parent="6R_6MBM99lbz82RT-N0f-38" vertex="1">
          <mxGeometry y="554" width="560" height="26" as="geometry" />
        </mxCell>
        <mxCell id="cD2OyGJJ6BqeDQ9HETsG-40" style="edgeStyle=orthogonalEdgeStyle;rounded=0;orthogonalLoop=1;jettySize=auto;html=1;entryX=0;entryY=0.5;entryDx=0;entryDy=0;endArrow=none;endFill=0;strokeWidth=2;" edge="1" parent="1" source="6R_6MBM99lbz82RT-N0f-63" target="cD2OyGJJ6BqeDQ9HETsG-27">
          <mxGeometry relative="1" as="geometry" />
        </mxCell>
        <mxCell id="cD2OyGJJ6BqeDQ9HETsG-41" value="&lt;font style=&quot;font-size: 21px;&quot;&gt;1&lt;/font&gt;" style="edgeLabel;html=1;align=center;verticalAlign=middle;resizable=0;points=[];" vertex="1" connectable="0" parent="cD2OyGJJ6BqeDQ9HETsG-40">
          <mxGeometry x="0.9676" relative="1" as="geometry">
            <mxPoint as="offset" />
          </mxGeometry>
        </mxCell>
        <mxCell id="6R_6MBM99lbz82RT-N0f-63" value="User" style="swimlane;fontStyle=1;align=center;verticalAlign=top;childLayout=stackLayout;horizontal=1;startSize=26;horizontalStack=0;resizeParent=1;resizeParentMax=0;resizeLast=0;collapsible=1;marginBottom=0;whiteSpace=wrap;html=1;" parent="1" vertex="1">
          <mxGeometry x="-1880" y="1360" width="635" height="580" as="geometry" />
        </mxCell>
        <mxCell id="6R_6MBM99lbz82RT-N0f-64" value="+ ID: int" style="text;strokeColor=none;fillColor=none;align=left;verticalAlign=top;spacingLeft=4;spacingRight=4;overflow=hidden;rotatable=0;points=[[0,0.5],[1,0.5]];portConstraint=eastwest;whiteSpace=wrap;html=1;" parent="6R_6MBM99lbz82RT-N0f-63" vertex="1">
          <mxGeometry y="26" width="635" height="26" as="geometry" />
        </mxCell>
        <mxCell id="6R_6MBM99lbz82RT-N0f-67" value="+ userType: int" style="text;strokeColor=none;fillColor=none;align=left;verticalAlign=top;spacingLeft=4;spacingRight=4;overflow=hidden;rotatable=0;points=[[0,0.5],[1,0.5]];portConstraint=eastwest;whiteSpace=wrap;html=1;" parent="6R_6MBM99lbz82RT-N0f-63" vertex="1">
          <mxGeometry y="52" width="635" height="26" as="geometry" />
        </mxCell>
        <mxCell id="6R_6MBM99lbz82RT-N0f-68" value="+ password: string" style="text;strokeColor=none;fillColor=none;align=left;verticalAlign=top;spacingLeft=4;spacingRight=4;overflow=hidden;rotatable=0;points=[[0,0.5],[1,0.5]];portConstraint=eastwest;whiteSpace=wrap;html=1;" parent="6R_6MBM99lbz82RT-N0f-63" vertex="1">
          <mxGeometry y="78" width="635" height="26" as="geometry" />
        </mxCell>
        <mxCell id="6R_6MBM99lbz82RT-N0f-69" value="+ email: string" style="text;strokeColor=none;fillColor=none;align=left;verticalAlign=top;spacingLeft=4;spacingRight=4;overflow=hidden;rotatable=0;points=[[0,0.5],[1,0.5]];portConstraint=eastwest;whiteSpace=wrap;html=1;" parent="6R_6MBM99lbz82RT-N0f-63" vertex="1">
          <mxGeometry y="104" width="635" height="26" as="geometry" />
        </mxCell>
        <mxCell id="6R_6MBM99lbz82RT-N0f-70" value="+ firstName: string" style="text;strokeColor=none;fillColor=none;align=left;verticalAlign=top;spacingLeft=4;spacingRight=4;overflow=hidden;rotatable=0;points=[[0,0.5],[1,0.5]];portConstraint=eastwest;whiteSpace=wrap;html=1;" parent="6R_6MBM99lbz82RT-N0f-63" vertex="1">
          <mxGeometry y="130" width="635" height="26" as="geometry" />
        </mxCell>
        <mxCell id="6R_6MBM99lbz82RT-N0f-71" value="+ lastName: string" style="text;strokeColor=none;fillColor=none;align=left;verticalAlign=top;spacingLeft=4;spacingRight=4;overflow=hidden;rotatable=0;points=[[0,0.5],[1,0.5]];portConstraint=eastwest;whiteSpace=wrap;html=1;" parent="6R_6MBM99lbz82RT-N0f-63" vertex="1">
          <mxGeometry y="156" width="635" height="26" as="geometry" />
        </mxCell>
        <mxCell id="6R_6MBM99lbz82RT-N0f-65" value="" style="line;strokeWidth=1;fillColor=none;align=left;verticalAlign=middle;spacingTop=-1;spacingLeft=3;spacingRight=3;rotatable=0;labelPosition=right;points=[];portConstraint=eastwest;strokeColor=inherit;" parent="6R_6MBM99lbz82RT-N0f-63" vertex="1">
          <mxGeometry y="182" width="635" height="8" as="geometry" />
        </mxCell>
        <mxCell id="6R_6MBM99lbz82RT-N0f-66" value="&lt;u&gt;+ GetUserFromID(int ID): user&lt;/u&gt;" style="text;strokeColor=none;fillColor=none;align=left;verticalAlign=top;spacingLeft=4;spacingRight=4;overflow=hidden;rotatable=0;points=[[0,0.5],[1,0.5]];portConstraint=eastwest;whiteSpace=wrap;html=1;" parent="6R_6MBM99lbz82RT-N0f-63" vertex="1">
          <mxGeometry y="190" width="635" height="26" as="geometry" />
        </mxCell>
        <mxCell id="6R_6MBM99lbz82RT-N0f-72" value="+ Login(string _ID, string _NonHashedPassword): bool" style="text;strokeColor=none;fillColor=none;align=left;verticalAlign=top;spacingLeft=4;spacingRight=4;overflow=hidden;rotatable=0;points=[[0,0.5],[1,0.5]];portConstraint=eastwest;whiteSpace=wrap;html=1;" parent="6R_6MBM99lbz82RT-N0f-63" vertex="1">
          <mxGeometry y="216" width="635" height="26" as="geometry" />
        </mxCell>
        <mxCell id="6R_6MBM99lbz82RT-N0f-73" value="+ ChangePassowrd(string oldPassword, string newPassword): bool" style="text;strokeColor=none;fillColor=none;align=left;verticalAlign=top;spacingLeft=4;spacingRight=4;overflow=hidden;rotatable=0;points=[[0,0.5],[1,0.5]];portConstraint=eastwest;whiteSpace=wrap;html=1;" parent="6R_6MBM99lbz82RT-N0f-63" vertex="1">
          <mxGeometry y="242" width="635" height="26" as="geometry" />
        </mxCell>
        <mxCell id="6R_6MBM99lbz82RT-N0f-74" value="+ AdminChangePassword(string newPassword): bool" style="text;strokeColor=none;fillColor=none;align=left;verticalAlign=top;spacingLeft=4;spacingRight=4;overflow=hidden;rotatable=0;points=[[0,0.5],[1,0.5]];portConstraint=eastwest;whiteSpace=wrap;html=1;" parent="6R_6MBM99lbz82RT-N0f-63" vertex="1">
          <mxGeometry y="268" width="635" height="26" as="geometry" />
        </mxCell>
        <mxCell id="6R_6MBM99lbz82RT-N0f-75" value="+ ChangeEmail(string newEmail): void" style="text;strokeColor=none;fillColor=none;align=left;verticalAlign=top;spacingLeft=4;spacingRight=4;overflow=hidden;rotatable=0;points=[[0,0.5],[1,0.5]];portConstraint=eastwest;whiteSpace=wrap;html=1;" parent="6R_6MBM99lbz82RT-N0f-63" vertex="1">
          <mxGeometry y="294" width="635" height="26" as="geometry" />
        </mxCell>
        <mxCell id="6R_6MBM99lbz82RT-N0f-76" value="+ ChangeAccountType(int newAccountType): void" style="text;strokeColor=none;fillColor=none;align=left;verticalAlign=top;spacingLeft=4;spacingRight=4;overflow=hidden;rotatable=0;points=[[0,0.5],[1,0.5]];portConstraint=eastwest;whiteSpace=wrap;html=1;" parent="6R_6MBM99lbz82RT-N0f-63" vertex="1">
          <mxGeometry y="320" width="635" height="26" as="geometry" />
        </mxCell>
        <mxCell id="6R_6MBM99lbz82RT-N0f-77" value="&lt;u&gt;+ GetAllAccountIds(): list&amp;lt;int&amp;gt;&lt;/u&gt;" style="text;strokeColor=none;fillColor=none;align=left;verticalAlign=top;spacingLeft=4;spacingRight=4;overflow=hidden;rotatable=0;points=[[0,0.5],[1,0.5]];portConstraint=eastwest;whiteSpace=wrap;html=1;" parent="6R_6MBM99lbz82RT-N0f-63" vertex="1">
          <mxGeometry y="346" width="635" height="26" as="geometry" />
        </mxCell>
        <mxCell id="6R_6MBM99lbz82RT-N0f-78" value="+ GetActiveTicketsAmount(User u): int" style="text;strokeColor=none;fillColor=none;align=left;verticalAlign=top;spacingLeft=4;spacingRight=4;overflow=hidden;rotatable=0;points=[[0,0.5],[1,0.5]];portConstraint=eastwest;whiteSpace=wrap;html=1;" parent="6R_6MBM99lbz82RT-N0f-63" vertex="1">
          <mxGeometry y="372" width="635" height="26" as="geometry" />
        </mxCell>
        <mxCell id="6R_6MBM99lbz82RT-N0f-79" value="&lt;u&gt;+ TypeToString( User user): string&lt;/u&gt;" style="text;strokeColor=none;fillColor=none;align=left;verticalAlign=top;spacingLeft=4;spacingRight=4;overflow=hidden;rotatable=0;points=[[0,0.5],[1,0.5]];portConstraint=eastwest;whiteSpace=wrap;html=1;" parent="6R_6MBM99lbz82RT-N0f-63" vertex="1">
          <mxGeometry y="398" width="635" height="26" as="geometry" />
        </mxCell>
        <mxCell id="6R_6MBM99lbz82RT-N0f-80" value="+&amp;nbsp;&lt;u&gt;CreateNew( string firstName, string, lastName, string emailAddress, Type accountType, string rawPassword): User&lt;/u&gt;" style="text;strokeColor=none;fillColor=none;align=left;verticalAlign=top;spacingLeft=4;spacingRight=4;overflow=hidden;rotatable=0;points=[[0,0.5],[1,0.5]];portConstraint=eastwest;whiteSpace=wrap;html=1;" parent="6R_6MBM99lbz82RT-N0f-63" vertex="1">
          <mxGeometry y="424" width="635" height="26" as="geometry" />
        </mxCell>
        <mxCell id="6R_6MBM99lbz82RT-N0f-81" value="&lt;u&gt;- NewID(): int&lt;/u&gt;" style="text;strokeColor=none;fillColor=none;align=left;verticalAlign=top;spacingLeft=4;spacingRight=4;overflow=hidden;rotatable=0;points=[[0,0.5],[1,0.5]];portConstraint=eastwest;whiteSpace=wrap;html=1;" parent="6R_6MBM99lbz82RT-N0f-63" vertex="1">
          <mxGeometry y="450" width="635" height="26" as="geometry" />
        </mxCell>
        <mxCell id="6R_6MBM99lbz82RT-N0f-82" value="&lt;u&gt;- AddNewUser(User u): bool&lt;/u&gt;" style="text;strokeColor=none;fillColor=none;align=left;verticalAlign=top;spacingLeft=4;spacingRight=4;overflow=hidden;rotatable=0;points=[[0,0.5],[1,0.5]];portConstraint=eastwest;whiteSpace=wrap;html=1;" parent="6R_6MBM99lbz82RT-N0f-63" vertex="1">
          <mxGeometry y="476" width="635" height="26" as="geometry" />
        </mxCell>
        <mxCell id="6R_6MBM99lbz82RT-N0f-84" value="&lt;u&gt;+ ValidateEmail(string email): bool&lt;/u&gt;" style="text;strokeColor=none;fillColor=none;align=left;verticalAlign=top;spacingLeft=4;spacingRight=4;overflow=hidden;rotatable=0;points=[[0,0.5],[1,0.5]];portConstraint=eastwest;whiteSpace=wrap;html=1;" parent="6R_6MBM99lbz82RT-N0f-63" vertex="1">
          <mxGeometry y="502" width="635" height="26" as="geometry" />
        </mxCell>
        <mxCell id="6R_6MBM99lbz82RT-N0f-85" value="&lt;u&gt;+ GenerateRandomPassword(): string&lt;/u&gt;" style="text;strokeColor=none;fillColor=none;align=left;verticalAlign=top;spacingLeft=4;spacingRight=4;overflow=hidden;rotatable=0;points=[[0,0.5],[1,0.5]];portConstraint=eastwest;whiteSpace=wrap;html=1;" parent="6R_6MBM99lbz82RT-N0f-63" vertex="1">
          <mxGeometry y="528" width="635" height="26" as="geometry" />
        </mxCell>
        <mxCell id="6R_6MBM99lbz82RT-N0f-86" value="&lt;u&gt;+ DeleteAccount(User u): void&lt;/u&gt;" style="text;strokeColor=none;fillColor=none;align=left;verticalAlign=top;spacingLeft=4;spacingRight=4;overflow=hidden;rotatable=0;points=[[0,0.5],[1,0.5]];portConstraint=eastwest;whiteSpace=wrap;html=1;" parent="6R_6MBM99lbz82RT-N0f-63" vertex="1">
          <mxGeometry y="554" width="635" height="26" as="geometry" />
        </mxCell>
        <mxCell id="cD2OyGJJ6BqeDQ9HETsG-3" value="&lt;font style=&quot;font-size: 26px;&quot;&gt;Page (.NET Framework)&lt;/font&gt;" style="swimlane;fontStyle=1;align=center;verticalAlign=top;childLayout=stackLayout;horizontal=1;startSize=50;horizontalStack=0;resizeParent=1;resizeParentMax=0;resizeLast=0;collapsible=1;marginBottom=0;whiteSpace=wrap;html=1;" vertex="1" parent="1">
          <mxGeometry x="-1330" y="160" width="400" height="80" as="geometry" />
        </mxCell>
        <mxCell id="cD2OyGJJ6BqeDQ9HETsG-5" value="" style="line;strokeWidth=1;fillColor=none;align=left;verticalAlign=middle;spacingTop=-1;spacingLeft=3;spacingRight=3;rotatable=0;labelPosition=right;points=[];portConstraint=eastwest;strokeColor=inherit;" vertex="1" parent="cD2OyGJJ6BqeDQ9HETsG-3">
          <mxGeometry y="50" width="400" height="30" as="geometry" />
        </mxCell>
        <mxCell id="cD2OyGJJ6BqeDQ9HETsG-13" style="edgeStyle=orthogonalEdgeStyle;rounded=0;orthogonalLoop=1;jettySize=auto;html=1;entryX=0.75;entryY=1;entryDx=0;entryDy=0;endArrow=block;endFill=0;endSize=15;strokeWidth=2;" edge="1" parent="1" source="6R_6MBM99lbz82RT-N0f-19" target="cD2OyGJJ6BqeDQ9HETsG-3">
          <mxGeometry relative="1" as="geometry" />
        </mxCell>
        <mxCell id="cD2OyGJJ6BqeDQ9HETsG-43" style="edgeStyle=orthogonalEdgeStyle;rounded=0;orthogonalLoop=1;jettySize=auto;html=1;dashed=1;dashPattern=8 8;strokeWidth=2;endArrow=open;endFill=0;endSize=17;entryX=0.566;entryY=0.001;entryDx=0;entryDy=0;entryPerimeter=0;" edge="1" parent="1" source="cD2OyGJJ6BqeDQ9HETsG-18" target="6R_6MBM99lbz82RT-N0f-63">
          <mxGeometry relative="1" as="geometry">
            <mxPoint x="-1480" y="1320" as="targetPoint" />
            <Array as="points">
              <mxPoint x="-1520" y="1230" />
              <mxPoint x="-1520" y="1361" />
            </Array>
          </mxGeometry>
        </mxCell>
        <mxCell id="cD2OyGJJ6BqeDQ9HETsG-44" style="edgeStyle=orthogonalEdgeStyle;rounded=0;orthogonalLoop=1;jettySize=auto;html=1;entryX=0.453;entryY=1.015;entryDx=0;entryDy=0;entryPerimeter=0;dashed=1;dashPattern=8 8;strokeWidth=2;endArrow=open;endFill=0;endSize=16;startArrow=open;startFill=0;exitX=0.081;exitY=0;exitDx=0;exitDy=0;exitPerimeter=0;startSize=16;" edge="1" parent="1" source="cD2OyGJJ6BqeDQ9HETsG-18" target="RAh7o2k0Y51vPVvhqQPN-14">
          <mxGeometry relative="1" as="geometry">
            <Array as="points" />
          </mxGeometry>
        </mxCell>
        <mxCell id="cD2OyGJJ6BqeDQ9HETsG-47" style="edgeStyle=orthogonalEdgeStyle;rounded=0;orthogonalLoop=1;jettySize=auto;html=1;strokeWidth=2;endArrow=block;endFill=0;endSize=21;" edge="1" parent="1" source="cD2OyGJJ6BqeDQ9HETsG-18">
          <mxGeometry relative="1" as="geometry">
            <mxPoint x="-190" y="890" as="targetPoint" />
            <Array as="points">
              <mxPoint x="-190" y="1010" />
              <mxPoint x="-190" y="1010" />
            </Array>
          </mxGeometry>
        </mxCell>
        <mxCell id="cD2OyGJJ6BqeDQ9HETsG-18" value="MainWindow" style="swimlane;fontStyle=1;align=center;verticalAlign=top;childLayout=stackLayout;horizontal=1;startSize=26;horizontalStack=0;resizeParent=1;resizeParentMax=0;resizeLast=0;collapsible=1;marginBottom=0;whiteSpace=wrap;html=1;" vertex="1" parent="1">
          <mxGeometry x="-460" y="1050" width="575" height="346" as="geometry" />
        </mxCell>
        <mxCell id="cD2OyGJJ6BqeDQ9HETsG-23" value="+ LoggedIn : bool" style="text;strokeColor=none;fillColor=none;align=left;verticalAlign=top;spacingLeft=4;spacingRight=4;overflow=hidden;rotatable=0;points=[[0,0.5],[1,0.5]];portConstraint=eastwest;whiteSpace=wrap;html=1;" vertex="1" parent="cD2OyGJJ6BqeDQ9HETsG-18">
          <mxGeometry y="26" width="575" height="26" as="geometry" />
        </mxCell>
        <mxCell id="cD2OyGJJ6BqeDQ9HETsG-24" value="&lt;u&gt;+ user : User&lt;/u&gt;" style="text;strokeColor=none;fillColor=none;align=left;verticalAlign=top;spacingLeft=4;spacingRight=4;overflow=hidden;rotatable=0;points=[[0,0.5],[1,0.5]];portConstraint=eastwest;whiteSpace=wrap;html=1;" vertex="1" parent="cD2OyGJJ6BqeDQ9HETsG-18">
          <mxGeometry y="52" width="575" height="26" as="geometry" />
        </mxCell>
        <mxCell id="cD2OyGJJ6BqeDQ9HETsG-19" value="" style="line;strokeWidth=1;fillColor=none;align=left;verticalAlign=middle;spacingTop=-1;spacingLeft=3;spacingRight=3;rotatable=0;labelPosition=right;points=[];portConstraint=eastwest;strokeColor=inherit;" vertex="1" parent="cD2OyGJJ6BqeDQ9HETsG-18">
          <mxGeometry y="78" width="575" height="8" as="geometry" />
        </mxCell>
        <mxCell id="cD2OyGJJ6BqeDQ9HETsG-25" value="+ &amp;lt;&amp;lt;create&amp;gt;&amp;gt; MainWindow" style="text;strokeColor=none;fillColor=none;align=left;verticalAlign=top;spacingLeft=4;spacingRight=4;overflow=hidden;rotatable=0;points=[[0,0.5],[1,0.5]];portConstraint=eastwest;whiteSpace=wrap;html=1;" vertex="1" parent="cD2OyGJJ6BqeDQ9HETsG-18">
          <mxGeometry y="86" width="575" height="26" as="geometry" />
        </mxCell>
        <mxCell id="cD2OyGJJ6BqeDQ9HETsG-26" value="+ ChangeWindow(string windowName) : void" style="text;strokeColor=none;fillColor=none;align=left;verticalAlign=top;spacingLeft=4;spacingRight=4;overflow=hidden;rotatable=0;points=[[0,0.5],[1,0.5]];portConstraint=eastwest;whiteSpace=wrap;html=1;" vertex="1" parent="cD2OyGJJ6BqeDQ9HETsG-18">
          <mxGeometry y="112" width="575" height="26" as="geometry" />
        </mxCell>
        <mxCell id="cD2OyGJJ6BqeDQ9HETsG-27" value="&lt;u&gt;+ HexColor(string hex) : SolidColorBrush&lt;/u&gt;" style="text;strokeColor=none;fillColor=none;align=left;verticalAlign=top;spacingLeft=4;spacingRight=4;overflow=hidden;rotatable=0;points=[[0,0.5],[1,0.5]];portConstraint=eastwest;whiteSpace=wrap;html=1;" vertex="1" parent="cD2OyGJJ6BqeDQ9HETsG-18">
          <mxGeometry y="138" width="575" height="26" as="geometry" />
        </mxCell>
        <mxCell id="cD2OyGJJ6BqeDQ9HETsG-29" value="- Logout_Click(object sender, RoutedEventArgs e) : void" style="text;strokeColor=none;fillColor=none;align=left;verticalAlign=top;spacingLeft=4;spacingRight=4;overflow=hidden;rotatable=0;points=[[0,0.5],[1,0.5]];portConstraint=eastwest;whiteSpace=wrap;html=1;" vertex="1" parent="cD2OyGJJ6BqeDQ9HETsG-18">
          <mxGeometry y="164" width="575" height="26" as="geometry" />
        </mxCell>
        <mxCell id="cD2OyGJJ6BqeDQ9HETsG-35" value="- MainWindowVisability(bool shown) : void" style="text;strokeColor=none;fillColor=none;align=left;verticalAlign=top;spacingLeft=4;spacingRight=4;overflow=hidden;rotatable=0;points=[[0,0.5],[1,0.5]];portConstraint=eastwest;whiteSpace=wrap;html=1;" vertex="1" parent="cD2OyGJJ6BqeDQ9HETsG-18">
          <mxGeometry y="190" width="575" height="26" as="geometry" />
        </mxCell>
        <mxCell id="cD2OyGJJ6BqeDQ9HETsG-37" value="- LoginWindowVisability(bool shown) : void" style="text;strokeColor=none;fillColor=none;align=left;verticalAlign=top;spacingLeft=4;spacingRight=4;overflow=hidden;rotatable=0;points=[[0,0.5],[1,0.5]];portConstraint=eastwest;whiteSpace=wrap;html=1;" vertex="1" parent="cD2OyGJJ6BqeDQ9HETsG-18">
          <mxGeometry y="216" width="575" height="26" as="geometry" />
        </mxCell>
        <mxCell id="cD2OyGJJ6BqeDQ9HETsG-36" value="+ LoginActivation(string username, string password) : bool" style="text;strokeColor=none;fillColor=none;align=left;verticalAlign=top;spacingLeft=4;spacingRight=4;overflow=hidden;rotatable=0;points=[[0,0.5],[1,0.5]];portConstraint=eastwest;whiteSpace=wrap;html=1;" vertex="1" parent="cD2OyGJJ6BqeDQ9HETsG-18">
          <mxGeometry y="242" width="575" height="26" as="geometry" />
        </mxCell>
        <mxCell id="cD2OyGJJ6BqeDQ9HETsG-28" value="- GenerateSideNavButtons(User.Type loginType) : void" style="text;strokeColor=none;fillColor=none;align=left;verticalAlign=top;spacingLeft=4;spacingRight=4;overflow=hidden;rotatable=0;points=[[0,0.5],[1,0.5]];portConstraint=eastwest;whiteSpace=wrap;html=1;" vertex="1" parent="cD2OyGJJ6BqeDQ9HETsG-18">
          <mxGeometry y="268" width="575" height="26" as="geometry" />
        </mxCell>
        <mxCell id="cD2OyGJJ6BqeDQ9HETsG-38" value="- CreateSideNavButton(string nameDisplay, string nameFrame, string iconLocation) : void" style="text;strokeColor=none;fillColor=none;align=left;verticalAlign=top;spacingLeft=4;spacingRight=4;overflow=hidden;rotatable=0;points=[[0,0.5],[1,0.5]];portConstraint=eastwest;whiteSpace=wrap;html=1;" vertex="1" parent="cD2OyGJJ6BqeDQ9HETsG-18">
          <mxGeometry y="294" width="575" height="26" as="geometry" />
        </mxCell>
        <mxCell id="cD2OyGJJ6BqeDQ9HETsG-21" value="- CreateSideNavButtonT(string nameDisplay, string nameFrame, string iconLocation, int selection) : void" style="text;strokeColor=none;fillColor=none;align=left;verticalAlign=top;spacingLeft=4;spacingRight=4;overflow=hidden;rotatable=0;points=[[0,0.5],[1,0.5]];portConstraint=eastwest;whiteSpace=wrap;html=1;" vertex="1" parent="cD2OyGJJ6BqeDQ9HETsG-18">
          <mxGeometry y="320" width="575" height="26" as="geometry" />
        </mxCell>
        <mxCell id="cD2OyGJJ6BqeDQ9HETsG-45" value="&lt;font style=&quot;font-size: 26px;&quot;&gt;Window (.NET Framework)&lt;/font&gt;" style="swimlane;fontStyle=1;align=center;verticalAlign=top;childLayout=stackLayout;horizontal=1;startSize=50;horizontalStack=0;resizeParent=1;resizeParentMax=0;resizeLast=0;collapsible=1;marginBottom=0;whiteSpace=wrap;html=1;" vertex="1" parent="1">
          <mxGeometry x="-385" y="810" width="360" height="80" as="geometry" />
        </mxCell>
        <mxCell id="cD2OyGJJ6BqeDQ9HETsG-46" value="" style="line;strokeWidth=1;fillColor=none;align=left;verticalAlign=middle;spacingTop=-1;spacingLeft=3;spacingRight=3;rotatable=0;labelPosition=right;points=[];portConstraint=eastwest;strokeColor=inherit;" vertex="1" parent="cD2OyGJJ6BqeDQ9HETsG-45">
          <mxGeometry y="50" width="360" height="30" as="geometry" />
        </mxCell>
        <mxCell id="cD2OyGJJ6BqeDQ9HETsG-92" style="edgeStyle=orthogonalEdgeStyle;shape=connector;rounded=0;orthogonalLoop=1;jettySize=auto;html=1;entryX=0.863;entryY=0.009;entryDx=0;entryDy=0;entryPerimeter=0;dashed=1;dashPattern=8 8;labelBackgroundColor=default;strokeColor=default;strokeWidth=2;fontFamily=Helvetica;fontSize=11;fontColor=default;endArrow=open;endFill=0;endSize=15;" edge="1" parent="1" source="cD2OyGJJ6BqeDQ9HETsG-53" target="cD2OyGJJ6BqeDQ9HETsG-18">
          <mxGeometry relative="1" as="geometry">
            <Array as="points">
              <mxPoint x="36" y="740" />
              <mxPoint x="36" y="740" />
            </Array>
          </mxGeometry>
        </mxCell>
        <mxCell id="cD2OyGJJ6BqeDQ9HETsG-93" style="edgeStyle=orthogonalEdgeStyle;shape=connector;rounded=0;orthogonalLoop=1;jettySize=auto;html=1;entryX=0.583;entryY=0.003;entryDx=0;entryDy=0;entryPerimeter=0;dashed=1;dashPattern=8 8;labelBackgroundColor=default;strokeColor=default;strokeWidth=2;fontFamily=Helvetica;fontSize=11;fontColor=default;endArrow=open;endFill=0;endSize=15;" edge="1" parent="1" source="cD2OyGJJ6BqeDQ9HETsG-53" target="6R_6MBM99lbz82RT-N0f-63">
          <mxGeometry relative="1" as="geometry">
            <Array as="points">
              <mxPoint x="155" y="740" />
              <mxPoint x="-500" y="740" />
              <mxPoint x="-500" y="1300" />
              <mxPoint x="-1510" y="1300" />
            </Array>
          </mxGeometry>
        </mxCell>
        <mxCell id="cD2OyGJJ6BqeDQ9HETsG-53" value="CreateAccount" style="swimlane;fontStyle=1;align=center;verticalAlign=top;childLayout=stackLayout;horizontal=1;startSize=26;horizontalStack=0;resizeParent=1;resizeParentMax=0;resizeLast=0;collapsible=1;marginBottom=0;whiteSpace=wrap;html=1;" vertex="1" parent="1">
          <mxGeometry x="-120" y="80" width="550" height="554" as="geometry" />
        </mxCell>
        <mxCell id="cD2OyGJJ6BqeDQ9HETsG-54" value="" style="line;strokeWidth=1;fillColor=none;align=left;verticalAlign=middle;spacingTop=-1;spacingLeft=3;spacingRight=3;rotatable=0;labelPosition=right;points=[];portConstraint=eastwest;strokeColor=inherit;" vertex="1" parent="cD2OyGJJ6BqeDQ9HETsG-53">
          <mxGeometry y="26" width="550" height="8" as="geometry" />
        </mxCell>
        <mxCell id="cD2OyGJJ6BqeDQ9HETsG-55" value="+ &amp;lt;&amp;lt;create&amp;gt;&amp;gt; CreateAccount()" style="text;strokeColor=none;fillColor=none;align=left;verticalAlign=top;spacingLeft=4;spacingRight=4;overflow=hidden;rotatable=0;points=[[0,0.5],[1,0.5]];portConstraint=eastwest;whiteSpace=wrap;html=1;" vertex="1" parent="cD2OyGJJ6BqeDQ9HETsG-53">
          <mxGeometry y="34" width="550" height="26" as="geometry" />
        </mxCell>
        <mxCell id="cD2OyGJJ6BqeDQ9HETsG-57" value="- BackBtn_Click(object sender, RoutedEventArgs e)&amp;nbsp;: void" style="text;strokeColor=none;fillColor=none;align=left;verticalAlign=top;spacingLeft=4;spacingRight=4;overflow=hidden;rotatable=0;points=[[0,0.5],[1,0.5]];portConstraint=eastwest;whiteSpace=wrap;html=1;" vertex="1" parent="cD2OyGJJ6BqeDQ9HETsG-53">
          <mxGeometry y="60" width="550" height="26" as="geometry" />
        </mxCell>
        <mxCell id="cD2OyGJJ6BqeDQ9HETsG-63" value="- ConfirmBtn_Click(object sender, RoutedEventArgs e)&amp;nbsp;: void" style="text;strokeColor=none;fillColor=none;align=left;verticalAlign=top;spacingLeft=4;spacingRight=4;overflow=hidden;rotatable=0;points=[[0,0.5],[1,0.5]];portConstraint=eastwest;whiteSpace=wrap;html=1;" vertex="1" parent="cD2OyGJJ6BqeDQ9HETsG-53">
          <mxGeometry y="86" width="550" height="26" as="geometry" />
        </mxCell>
        <mxCell id="cD2OyGJJ6BqeDQ9HETsG-68" value="- NewPassTextBox_GotFocus(object sender, RoutedEventArgs e)&amp;nbsp;: void" style="text;strokeColor=none;fillColor=none;align=left;verticalAlign=top;spacingLeft=4;spacingRight=4;overflow=hidden;rotatable=0;points=[[0,0.5],[1,0.5]];portConstraint=eastwest;whiteSpace=wrap;html=1;" vertex="1" parent="cD2OyGJJ6BqeDQ9HETsG-53">
          <mxGeometry y="112" width="550" height="26" as="geometry" />
        </mxCell>
        <mxCell id="cD2OyGJJ6BqeDQ9HETsG-70" value="- NewPassTextBox_LostFocus(object sender, RoutedEventArgs e)&amp;nbsp;: void" style="text;strokeColor=none;fillColor=none;align=left;verticalAlign=top;spacingLeft=4;spacingRight=4;overflow=hidden;rotatable=0;points=[[0,0.5],[1,0.5]];portConstraint=eastwest;whiteSpace=wrap;html=1;" vertex="1" parent="cD2OyGJJ6BqeDQ9HETsG-53">
          <mxGeometry y="138" width="550" height="26" as="geometry" />
        </mxCell>
        <mxCell id="cD2OyGJJ6BqeDQ9HETsG-69" value="- ConfPassTextBox_GotFocus(object sender, RoutedEventArgs e)&amp;nbsp;: void" style="text;strokeColor=none;fillColor=none;align=left;verticalAlign=top;spacingLeft=4;spacingRight=4;overflow=hidden;rotatable=0;points=[[0,0.5],[1,0.5]];portConstraint=eastwest;whiteSpace=wrap;html=1;" vertex="1" parent="cD2OyGJJ6BqeDQ9HETsG-53">
          <mxGeometry y="164" width="550" height="26" as="geometry" />
        </mxCell>
        <mxCell id="cD2OyGJJ6BqeDQ9HETsG-65" value="- ConfPassTextBox_LostFocus(object sender, RoutedEventArgs e)&amp;nbsp;: void" style="text;strokeColor=none;fillColor=none;align=left;verticalAlign=top;spacingLeft=4;spacingRight=4;overflow=hidden;rotatable=0;points=[[0,0.5],[1,0.5]];portConstraint=eastwest;whiteSpace=wrap;html=1;" vertex="1" parent="cD2OyGJJ6BqeDQ9HETsG-53">
          <mxGeometry y="190" width="550" height="26" as="geometry" />
        </mxCell>
        <mxCell id="cD2OyGJJ6BqeDQ9HETsG-67" value="- NewPasswordGhostText_PreviewMouseDown(object sender, MouseButtonEventArgs e)&amp;nbsp;: void" style="text;strokeColor=none;fillColor=none;align=left;verticalAlign=top;spacingLeft=4;spacingRight=4;overflow=hidden;rotatable=0;points=[[0,0.5],[1,0.5]];portConstraint=eastwest;whiteSpace=wrap;html=1;" vertex="1" parent="cD2OyGJJ6BqeDQ9HETsG-53">
          <mxGeometry y="216" width="550" height="26" as="geometry" />
        </mxCell>
        <mxCell id="cD2OyGJJ6BqeDQ9HETsG-66" value="- ConfPasswordGhostText_PreviewMouseDown(object sender, MouseButtonEventArgs e)&amp;nbsp;: void" style="text;strokeColor=none;fillColor=none;align=left;verticalAlign=top;spacingLeft=4;spacingRight=4;overflow=hidden;rotatable=0;points=[[0,0.5],[1,0.5]];portConstraint=eastwest;whiteSpace=wrap;html=1;" vertex="1" parent="cD2OyGJJ6BqeDQ9HETsG-53">
          <mxGeometry y="242" width="550" height="26" as="geometry" />
        </mxCell>
        <mxCell id="cD2OyGJJ6BqeDQ9HETsG-64" value="- EmailAddress_GotFocus(object sender, RoutedEventArgs e)&amp;nbsp;: void" style="text;strokeColor=none;fillColor=none;align=left;verticalAlign=top;spacingLeft=4;spacingRight=4;overflow=hidden;rotatable=0;points=[[0,0.5],[1,0.5]];portConstraint=eastwest;whiteSpace=wrap;html=1;" vertex="1" parent="cD2OyGJJ6BqeDQ9HETsG-53">
          <mxGeometry y="268" width="550" height="26" as="geometry" />
        </mxCell>
        <mxCell id="cD2OyGJJ6BqeDQ9HETsG-62" value="- EmailAddress_LostFocus(object sender, RoutedEventArgs e)&amp;nbsp;: void" style="text;strokeColor=none;fillColor=none;align=left;verticalAlign=top;spacingLeft=4;spacingRight=4;overflow=hidden;rotatable=0;points=[[0,0.5],[1,0.5]];portConstraint=eastwest;whiteSpace=wrap;html=1;" vertex="1" parent="cD2OyGJJ6BqeDQ9HETsG-53">
          <mxGeometry y="294" width="550" height="26" as="geometry" />
        </mxCell>
        <mxCell id="cD2OyGJJ6BqeDQ9HETsG-61" value="- LastName_GotFocus(object sender, RoutedEventArgs e)&amp;nbsp;: void" style="text;strokeColor=none;fillColor=none;align=left;verticalAlign=top;spacingLeft=4;spacingRight=4;overflow=hidden;rotatable=0;points=[[0,0.5],[1,0.5]];portConstraint=eastwest;whiteSpace=wrap;html=1;" vertex="1" parent="cD2OyGJJ6BqeDQ9HETsG-53">
          <mxGeometry y="320" width="550" height="26" as="geometry" />
        </mxCell>
        <mxCell id="cD2OyGJJ6BqeDQ9HETsG-60" value="- LastName_LostFocus(object sender, RoutedEventArgs e)&amp;nbsp;: void" style="text;strokeColor=none;fillColor=none;align=left;verticalAlign=top;spacingLeft=4;spacingRight=4;overflow=hidden;rotatable=0;points=[[0,0.5],[1,0.5]];portConstraint=eastwest;whiteSpace=wrap;html=1;" vertex="1" parent="cD2OyGJJ6BqeDQ9HETsG-53">
          <mxGeometry y="346" width="550" height="26" as="geometry" />
        </mxCell>
        <mxCell id="cD2OyGJJ6BqeDQ9HETsG-59" value="- FirstName_GotFocus(object sender, RoutedEventArgs e) : void" style="text;strokeColor=none;fillColor=none;align=left;verticalAlign=top;spacingLeft=4;spacingRight=4;overflow=hidden;rotatable=0;points=[[0,0.5],[1,0.5]];portConstraint=eastwest;whiteSpace=wrap;html=1;" vertex="1" parent="cD2OyGJJ6BqeDQ9HETsG-53">
          <mxGeometry y="372" width="550" height="26" as="geometry" />
        </mxCell>
        <mxCell id="cD2OyGJJ6BqeDQ9HETsG-58" value="- FirstName_LostFocus(object sender, RoutedEventArgs e) : void&amp;nbsp;" style="text;strokeColor=none;fillColor=none;align=left;verticalAlign=top;spacingLeft=4;spacingRight=4;overflow=hidden;rotatable=0;points=[[0,0.5],[1,0.5]];portConstraint=eastwest;whiteSpace=wrap;html=1;" vertex="1" parent="cD2OyGJJ6BqeDQ9HETsG-53">
          <mxGeometry y="398" width="550" height="26" as="geometry" />
        </mxCell>
        <mxCell id="cD2OyGJJ6BqeDQ9HETsG-71" value="- NewPassTextBox_GotFocus(object sender, RoutedEventArgs e) : void" style="text;strokeColor=none;fillColor=none;align=left;verticalAlign=top;spacingLeft=4;spacingRight=4;overflow=hidden;rotatable=0;points=[[0,0.5],[1,0.5]];portConstraint=eastwest;whiteSpace=wrap;html=1;" vertex="1" parent="cD2OyGJJ6BqeDQ9HETsG-53">
          <mxGeometry y="424" width="550" height="26" as="geometry" />
        </mxCell>
        <mxCell id="cD2OyGJJ6BqeDQ9HETsG-74" value="- NewPassTextBox_LostFocus(object sender, RoutedEventArgs e) : void" style="text;strokeColor=none;fillColor=none;align=left;verticalAlign=top;spacingLeft=4;spacingRight=4;overflow=hidden;rotatable=0;points=[[0,0.5],[1,0.5]];portConstraint=eastwest;whiteSpace=wrap;html=1;" vertex="1" parent="cD2OyGJJ6BqeDQ9HETsG-53">
          <mxGeometry y="450" width="550" height="26" as="geometry" />
        </mxCell>
        <mxCell id="cD2OyGJJ6BqeDQ9HETsG-73" value="- ConfPassTextBox_GotFocus(object sender, RoutedEventArgs e) : void" style="text;strokeColor=none;fillColor=none;align=left;verticalAlign=top;spacingLeft=4;spacingRight=4;overflow=hidden;rotatable=0;points=[[0,0.5],[1,0.5]];portConstraint=eastwest;whiteSpace=wrap;html=1;" vertex="1" parent="cD2OyGJJ6BqeDQ9HETsG-53">
          <mxGeometry y="476" width="550" height="26" as="geometry" />
        </mxCell>
        <mxCell id="cD2OyGJJ6BqeDQ9HETsG-72" value="- ConfPassTextBox_LostFocus(object sender, RoutedEventArgs e) : void" style="text;strokeColor=none;fillColor=none;align=left;verticalAlign=top;spacingLeft=4;spacingRight=4;overflow=hidden;rotatable=0;points=[[0,0.5],[1,0.5]];portConstraint=eastwest;whiteSpace=wrap;html=1;" vertex="1" parent="cD2OyGJJ6BqeDQ9HETsG-53">
          <mxGeometry y="502" width="550" height="26" as="geometry" />
        </mxCell>
        <mxCell id="cD2OyGJJ6BqeDQ9HETsG-75" value="- NewPasswordGhostText_PreviewMouseDown(object sender, MouseButtonEventArgs e) : void" style="text;strokeColor=none;fillColor=none;align=left;verticalAlign=top;spacingLeft=4;spacingRight=4;overflow=hidden;rotatable=0;points=[[0,0.5],[1,0.5]];portConstraint=eastwest;whiteSpace=wrap;html=1;" vertex="1" parent="cD2OyGJJ6BqeDQ9HETsG-53">
          <mxGeometry y="528" width="550" height="26" as="geometry" />
        </mxCell>
        <mxCell id="cD2OyGJJ6BqeDQ9HETsG-79" style="edgeStyle=orthogonalEdgeStyle;rounded=0;orthogonalLoop=1;jettySize=auto;html=1;endArrow=block;endFill=0;endSize=15;strokeWidth=2;" edge="1" parent="1" source="cD2OyGJJ6BqeDQ9HETsG-53">
          <mxGeometry relative="1" as="geometry">
            <mxPoint x="-950" y="240" as="targetPoint" />
            <mxPoint x="-320" y="300" as="sourcePoint" />
            <Array as="points">
              <mxPoint x="-950" y="270" />
            </Array>
          </mxGeometry>
        </mxCell>
        <mxCell id="cD2OyGJJ6BqeDQ9HETsG-136" style="edgeStyle=orthogonalEdgeStyle;shape=connector;rounded=0;orthogonalLoop=1;jettySize=auto;html=1;entryX=0.253;entryY=0.998;entryDx=0;entryDy=0;entryPerimeter=0;dashed=1;labelBackgroundColor=default;strokeColor=default;strokeWidth=2;fontFamily=Helvetica;fontSize=11;fontColor=default;endArrow=block;endFill=0;endSize=9;startSize=3;jumpSize=1;" edge="1" parent="1" source="cD2OyGJJ6BqeDQ9HETsG-96" target="cD2OyGJJ6BqeDQ9HETsG-109">
          <mxGeometry relative="1" as="geometry" />
        </mxCell>
        <mxCell id="cD2OyGJJ6BqeDQ9HETsG-96" value="Debug" style="swimlane;fontStyle=1;align=center;verticalAlign=top;childLayout=stackLayout;horizontal=1;startSize=26;horizontalStack=0;resizeParent=1;resizeParentMax=0;resizeLast=0;collapsible=1;marginBottom=0;whiteSpace=wrap;html=1;" vertex="1" parent="1">
          <mxGeometry x="-530" y="1960" width="170" height="138" as="geometry" />
        </mxCell>
        <mxCell id="cD2OyGJJ6BqeDQ9HETsG-98" value="" style="line;strokeWidth=1;fillColor=none;align=left;verticalAlign=middle;spacingTop=-1;spacingLeft=3;spacingRight=3;rotatable=0;labelPosition=right;points=[];portConstraint=eastwest;strokeColor=inherit;" vertex="1" parent="cD2OyGJJ6BqeDQ9HETsG-96">
          <mxGeometry y="26" width="170" height="8" as="geometry" />
        </mxCell>
        <mxCell id="cD2OyGJJ6BqeDQ9HETsG-99" value="&lt;u&gt;+ SetLogger(): void&lt;/u&gt;" style="text;strokeColor=none;fillColor=none;align=left;verticalAlign=top;spacingLeft=4;spacingRight=4;overflow=hidden;rotatable=0;points=[[0,0.5],[1,0.5]];portConstraint=eastwest;whiteSpace=wrap;html=1;" vertex="1" parent="cD2OyGJJ6BqeDQ9HETsG-96">
          <mxGeometry y="34" width="170" height="26" as="geometry" />
        </mxCell>
        <mxCell id="cD2OyGJJ6BqeDQ9HETsG-100" value="&lt;u&gt;+ Log(): void&lt;/u&gt;" style="text;strokeColor=none;fillColor=none;align=left;verticalAlign=top;spacingLeft=4;spacingRight=4;overflow=hidden;rotatable=0;points=[[0,0.5],[1,0.5]];portConstraint=eastwest;whiteSpace=wrap;html=1;" vertex="1" parent="cD2OyGJJ6BqeDQ9HETsG-96">
          <mxGeometry y="60" width="170" height="26" as="geometry" />
        </mxCell>
        <mxCell id="cD2OyGJJ6BqeDQ9HETsG-101" value="&lt;u&gt;+ LogWarning(): void&lt;/u&gt;" style="text;strokeColor=none;fillColor=none;align=left;verticalAlign=top;spacingLeft=4;spacingRight=4;overflow=hidden;rotatable=0;points=[[0,0.5],[1,0.5]];portConstraint=eastwest;whiteSpace=wrap;html=1;" vertex="1" parent="cD2OyGJJ6BqeDQ9HETsG-96">
          <mxGeometry y="86" width="170" height="26" as="geometry" />
        </mxCell>
        <mxCell id="cD2OyGJJ6BqeDQ9HETsG-102" value="&lt;u&gt;+ LogError(): void&lt;/u&gt;" style="text;strokeColor=none;fillColor=none;align=left;verticalAlign=top;spacingLeft=4;spacingRight=4;overflow=hidden;rotatable=0;points=[[0,0.5],[1,0.5]];portConstraint=eastwest;whiteSpace=wrap;html=1;" vertex="1" parent="cD2OyGJJ6BqeDQ9HETsG-96">
          <mxGeometry y="112" width="170" height="26" as="geometry" />
        </mxCell>
        <mxCell id="cD2OyGJJ6BqeDQ9HETsG-138" value="" style="edgeStyle=orthogonalEdgeStyle;shape=connector;rounded=0;orthogonalLoop=1;jettySize=auto;html=1;labelBackgroundColor=default;strokeColor=default;strokeWidth=2;fontFamily=Helvetica;fontSize=11;fontColor=default;endArrow=diamondThin;endFill=1;endSize=15;entryX=0.491;entryY=1.013;entryDx=0;entryDy=0;entryPerimeter=0;" edge="1" parent="1" source="cD2OyGJJ6BqeDQ9HETsG-103" target="6R_6MBM99lbz82RT-N0f-29">
          <mxGeometry relative="1" as="geometry">
            <Array as="points">
              <mxPoint x="-314" y="1700" />
              <mxPoint x="-314" y="1700" />
            </Array>
          </mxGeometry>
        </mxCell>
        <mxCell id="cD2OyGJJ6BqeDQ9HETsG-103" value="&amp;lt;&amp;lt;interface&amp;gt;&amp;gt;&lt;br&gt;iLogger" style="swimlane;fontStyle=1;align=center;verticalAlign=top;childLayout=stackLayout;horizontal=1;startSize=40;horizontalStack=0;resizeParent=1;resizeParentMax=0;resizeLast=0;collapsible=1;marginBottom=0;whiteSpace=wrap;html=1;" vertex="1" parent="1">
          <mxGeometry x="-397.5" y="1720" width="170" height="178" as="geometry" />
        </mxCell>
        <mxCell id="cD2OyGJJ6BqeDQ9HETsG-104" value="&lt;u&gt;- logger: Ilogger&lt;/u&gt;" style="text;strokeColor=none;fillColor=none;align=left;verticalAlign=top;spacingLeft=4;spacingRight=4;overflow=hidden;rotatable=0;points=[[0,0.5],[1,0.5]];portConstraint=eastwest;whiteSpace=wrap;html=1;" vertex="1" parent="cD2OyGJJ6BqeDQ9HETsG-103">
          <mxGeometry y="40" width="170" height="26" as="geometry" />
        </mxCell>
        <mxCell id="cD2OyGJJ6BqeDQ9HETsG-105" value="" style="line;strokeWidth=1;fillColor=none;align=left;verticalAlign=middle;spacingTop=-1;spacingLeft=3;spacingRight=3;rotatable=0;labelPosition=right;points=[];portConstraint=eastwest;strokeColor=inherit;" vertex="1" parent="cD2OyGJJ6BqeDQ9HETsG-103">
          <mxGeometry y="66" width="170" height="8" as="geometry" />
        </mxCell>
        <mxCell id="cD2OyGJJ6BqeDQ9HETsG-106" value="&lt;u&gt;+ SetLogger(): void&lt;/u&gt;" style="text;strokeColor=none;fillColor=none;align=left;verticalAlign=top;spacingLeft=4;spacingRight=4;overflow=hidden;rotatable=0;points=[[0,0.5],[1,0.5]];portConstraint=eastwest;whiteSpace=wrap;html=1;" vertex="1" parent="cD2OyGJJ6BqeDQ9HETsG-103">
          <mxGeometry y="74" width="170" height="26" as="geometry" />
        </mxCell>
        <mxCell id="cD2OyGJJ6BqeDQ9HETsG-107" value="&lt;u&gt;+ Log(): void&lt;/u&gt;" style="text;strokeColor=none;fillColor=none;align=left;verticalAlign=top;spacingLeft=4;spacingRight=4;overflow=hidden;rotatable=0;points=[[0,0.5],[1,0.5]];portConstraint=eastwest;whiteSpace=wrap;html=1;" vertex="1" parent="cD2OyGJJ6BqeDQ9HETsG-103">
          <mxGeometry y="100" width="170" height="26" as="geometry" />
        </mxCell>
        <mxCell id="cD2OyGJJ6BqeDQ9HETsG-108" value="&lt;u&gt;+ LogWarning(): void&lt;/u&gt;" style="text;strokeColor=none;fillColor=none;align=left;verticalAlign=top;spacingLeft=4;spacingRight=4;overflow=hidden;rotatable=0;points=[[0,0.5],[1,0.5]];portConstraint=eastwest;whiteSpace=wrap;html=1;" vertex="1" parent="cD2OyGJJ6BqeDQ9HETsG-103">
          <mxGeometry y="126" width="170" height="26" as="geometry" />
        </mxCell>
        <mxCell id="cD2OyGJJ6BqeDQ9HETsG-109" value="&lt;u&gt;+ LogError(): void&lt;/u&gt;" style="text;strokeColor=none;fillColor=none;align=left;verticalAlign=top;spacingLeft=4;spacingRight=4;overflow=hidden;rotatable=0;points=[[0,0.5],[1,0.5]];portConstraint=eastwest;whiteSpace=wrap;html=1;" vertex="1" parent="cD2OyGJJ6BqeDQ9HETsG-103">
          <mxGeometry y="152" width="170" height="26" as="geometry" />
        </mxCell>
        <mxCell id="cD2OyGJJ6BqeDQ9HETsG-137" style="edgeStyle=orthogonalEdgeStyle;shape=connector;rounded=0;orthogonalLoop=1;jettySize=auto;html=1;entryX=0.671;entryY=1.019;entryDx=0;entryDy=0;entryPerimeter=0;labelBackgroundColor=default;strokeColor=default;strokeWidth=2;fontFamily=Helvetica;fontSize=11;fontColor=default;endArrow=block;endFill=0;endSize=9;startSize=0;dashed=1;" edge="1" parent="1" source="cD2OyGJJ6BqeDQ9HETsG-110" target="cD2OyGJJ6BqeDQ9HETsG-109">
          <mxGeometry relative="1" as="geometry" />
        </mxCell>
        <mxCell id="cD2OyGJJ6BqeDQ9HETsG-110" value="Debug" style="swimlane;fontStyle=1;align=center;verticalAlign=top;childLayout=stackLayout;horizontal=1;startSize=26;horizontalStack=0;resizeParent=1;resizeParentMax=0;resizeLast=0;collapsible=1;marginBottom=0;whiteSpace=wrap;html=1;" vertex="1" parent="1">
          <mxGeometry x="-280" y="1960" width="170" height="138" as="geometry" />
        </mxCell>
        <mxCell id="cD2OyGJJ6BqeDQ9HETsG-112" value="" style="line;strokeWidth=1;fillColor=none;align=left;verticalAlign=middle;spacingTop=-1;spacingLeft=3;spacingRight=3;rotatable=0;labelPosition=right;points=[];portConstraint=eastwest;strokeColor=inherit;" vertex="1" parent="cD2OyGJJ6BqeDQ9HETsG-110">
          <mxGeometry y="26" width="170" height="8" as="geometry" />
        </mxCell>
        <mxCell id="cD2OyGJJ6BqeDQ9HETsG-113" value="&lt;u&gt;+ SetLogger(): void&lt;/u&gt;" style="text;strokeColor=none;fillColor=none;align=left;verticalAlign=top;spacingLeft=4;spacingRight=4;overflow=hidden;rotatable=0;points=[[0,0.5],[1,0.5]];portConstraint=eastwest;whiteSpace=wrap;html=1;" vertex="1" parent="cD2OyGJJ6BqeDQ9HETsG-110">
          <mxGeometry y="34" width="170" height="26" as="geometry" />
        </mxCell>
        <mxCell id="cD2OyGJJ6BqeDQ9HETsG-114" value="&lt;u&gt;+ Log(): void&lt;/u&gt;" style="text;strokeColor=none;fillColor=none;align=left;verticalAlign=top;spacingLeft=4;spacingRight=4;overflow=hidden;rotatable=0;points=[[0,0.5],[1,0.5]];portConstraint=eastwest;whiteSpace=wrap;html=1;" vertex="1" parent="cD2OyGJJ6BqeDQ9HETsG-110">
          <mxGeometry y="60" width="170" height="26" as="geometry" />
        </mxCell>
        <mxCell id="cD2OyGJJ6BqeDQ9HETsG-115" value="&lt;u&gt;+ LogWarning(): void&lt;/u&gt;" style="text;strokeColor=none;fillColor=none;align=left;verticalAlign=top;spacingLeft=4;spacingRight=4;overflow=hidden;rotatable=0;points=[[0,0.5],[1,0.5]];portConstraint=eastwest;whiteSpace=wrap;html=1;" vertex="1" parent="cD2OyGJJ6BqeDQ9HETsG-110">
          <mxGeometry y="86" width="170" height="26" as="geometry" />
        </mxCell>
        <mxCell id="cD2OyGJJ6BqeDQ9HETsG-116" value="&lt;u&gt;+ LogError(): void&lt;/u&gt;" style="text;strokeColor=none;fillColor=none;align=left;verticalAlign=top;spacingLeft=4;spacingRight=4;overflow=hidden;rotatable=0;points=[[0,0.5],[1,0.5]];portConstraint=eastwest;whiteSpace=wrap;html=1;" vertex="1" parent="cD2OyGJJ6BqeDQ9HETsG-110">
          <mxGeometry y="112" width="170" height="26" as="geometry" />
        </mxCell>
        <mxCell id="cD2OyGJJ6BqeDQ9HETsG-120" style="edgeStyle=orthogonalEdgeStyle;shape=connector;rounded=0;orthogonalLoop=1;jettySize=auto;html=1;entryX=0.05;entryY=-0.001;entryDx=0;entryDy=0;entryPerimeter=0;dashed=1;dashPattern=8 8;labelBackgroundColor=default;strokeColor=default;strokeWidth=2;fontFamily=Helvetica;fontSize=11;fontColor=default;endArrow=open;endFill=0;endSize=15;" edge="1" parent="1" source="6R_6MBM99lbz82RT-N0f-4" target="cD2OyGJJ6BqeDQ9HETsG-18">
          <mxGeometry relative="1" as="geometry">
            <Array as="points">
              <mxPoint x="-431" y="690" />
            </Array>
          </mxGeometry>
        </mxCell>
        <mxCell id="cD2OyGJJ6BqeDQ9HETsG-122" style="edgeStyle=orthogonalEdgeStyle;shape=connector;rounded=0;orthogonalLoop=1;jettySize=auto;html=1;entryX=0.913;entryY=0;entryDx=0;entryDy=0;entryPerimeter=0;labelBackgroundColor=default;strokeColor=default;strokeWidth=2;fontFamily=Helvetica;fontSize=11;fontColor=default;endArrow=none;endFill=0;endSize=23;" edge="1" parent="1" source="6R_6MBM99lbz82RT-N0f-4" target="6R_6MBM99lbz82RT-N0f-63">
          <mxGeometry relative="1" as="geometry">
            <Array as="points">
              <mxPoint x="-805" y="697" />
              <mxPoint x="-805" y="1070" />
              <mxPoint x="-1300" y="1070" />
            </Array>
          </mxGeometry>
        </mxCell>
        <mxCell id="cD2OyGJJ6BqeDQ9HETsG-126" style="edgeStyle=orthogonalEdgeStyle;shape=connector;rounded=0;orthogonalLoop=1;jettySize=auto;html=1;entryX=0.609;entryY=0.029;entryDx=0;entryDy=0;entryPerimeter=0;dashed=1;dashPattern=8 8;labelBackgroundColor=default;strokeColor=default;strokeWidth=2;fontFamily=Helvetica;fontSize=11;fontColor=default;endArrow=open;endFill=0;endSize=15;exitX=1;exitY=0.067;exitDx=0;exitDy=0;exitPerimeter=0;" edge="1" parent="1" source="6R_6MBM99lbz82RT-N0f-9" target="cD2OyGJJ6BqeDQ9HETsG-18">
          <mxGeometry relative="1" as="geometry">
            <Array as="points">
              <mxPoint x="-550" y="940" />
              <mxPoint x="-110" y="940" />
            </Array>
          </mxGeometry>
        </mxCell>
        <mxCell id="cD2OyGJJ6BqeDQ9HETsG-133" style="edgeStyle=orthogonalEdgeStyle;shape=connector;rounded=0;orthogonalLoop=1;jettySize=auto;html=1;exitX=0.552;exitY=0.991;exitDx=0;exitDy=0;dashed=1;dashPattern=8 8;labelBackgroundColor=default;strokeColor=default;strokeWidth=2;fontFamily=Helvetica;fontSize=11;fontColor=default;endArrow=open;endFill=0;endSize=15;exitPerimeter=0;entryX=0.004;entryY=0.883;entryDx=0;entryDy=0;entryPerimeter=0;" edge="1" parent="1" source="6R_6MBM99lbz82RT-N0f-22" target="6R_6MBM99lbz82RT-N0f-17">
          <mxGeometry relative="1" as="geometry">
            <Array as="points">
              <mxPoint x="-905" y="778" />
              <mxPoint x="-779" y="778" />
            </Array>
          </mxGeometry>
        </mxCell>
        <mxCell id="cD2OyGJJ6BqeDQ9HETsG-135" style="edgeStyle=orthogonalEdgeStyle;shape=connector;rounded=0;orthogonalLoop=1;jettySize=auto;html=1;dashed=1;dashPattern=8 8;labelBackgroundColor=default;strokeColor=default;strokeWidth=2;fontFamily=Helvetica;fontSize=11;fontColor=default;endArrow=open;endFill=0;endSize=15;" edge="1" parent="1" source="RAh7o2k0Y51vPVvhqQPN-63">
          <mxGeometry relative="1" as="geometry">
            <mxPoint x="-1080" y="1360" as="targetPoint" />
            <Array as="points">
              <mxPoint x="-1080" y="639" />
            </Array>
          </mxGeometry>
        </mxCell>
      </root>
    </mxGraphModel>
  </diagram>
</mxfile>
